<svg width="165" height="154" viewBox="0 0 165 154" fill="none" xmlns="http://www.w3.org/2000/svg">
<path d="M83.4791 153.506C128.502 153.506 165 133.097 165 107.92C165 82.7434 128.502 62.3337 83.4791 62.3337C38.4563 62.3337 1.95812 82.7434 1.95812 107.92C1.95812 133.097 38.4563 153.506 83.4791 153.506Z" fill="#F5F5F5"/>
<path d="M78.3744 145.354L152.607 103.845C153.482 103.356 153.482 102.561 152.607 102.071L91.7755 68.0515C91.2838 67.8099 90.7402 67.6839 90.1888 67.6839C89.6374 67.6839 89.0938 67.8099 88.6021 68.0515L14.3735 109.577C13.494 110.067 13.494 110.862 14.3735 111.352L75.2046 145.371C75.6973 145.61 76.241 145.732 76.7917 145.729C77.3424 145.726 77.8846 145.597 78.3744 145.354V145.354Z" fill="#E0E0E0"/>
<path d="M19.6284 97.322C19.3829 94.3655 17.9867 89.5137 14.4358 84.8997C10.6394 79.9556 6.00741 76.8607 2.57009 78.3088C-0.632705 79.6575 0.580252 83.9378 6.09536 88.1614C9.96143 91.1286 13.9741 94.983 16.1288 99.6432L19.6284 105.56V97.322Z" fill="#1E88E5"/>
<g opacity="0.2">
<path opacity="0.2" d="M19.6284 97.322C19.3829 94.3655 17.9867 89.5137 14.4358 84.8997C10.6394 79.9556 6.00741 76.8607 2.57009 78.3088C-0.632705 79.6575 0.580252 83.9378 6.09536 88.1614C9.96143 91.1286 13.9741 94.983 16.1288 99.6432L19.6284 105.56V97.322Z" fill="black"/>
</g>
<path d="M19.3206 99.5757C19.2758 99.5761 19.232 99.563 19.1952 99.5382C19.1585 99.5134 19.1306 99.4781 19.1154 99.4373C16.0519 91.2421 9.64261 82.9476 4.23011 80.1473C4.17961 80.1209 4.14175 80.0764 4.12463 80.0234C4.10752 79.9703 4.11249 79.9129 4.1385 79.8633C4.16645 79.8142 4.21302 79.7774 4.2684 79.7609C4.32378 79.7443 4.38363 79.7492 4.43533 79.7746C9.93211 82.614 16.4183 91.0115 19.5222 99.2953C19.5321 99.3212 19.5367 99.3487 19.5356 99.3763C19.5345 99.4039 19.5279 99.431 19.5159 99.456C19.504 99.4811 19.4871 99.5036 19.4662 99.5224C19.4452 99.5411 19.4207 99.5556 19.3939 99.5651C19.3705 99.5733 19.3455 99.577 19.3206 99.5757Z" fill="white"/>
<path d="M20.966 111.412C19.1897 112.764 17.0782 113.64 14.8426 113.954C10.9838 114.543 9.27983 112.758 9.27983 112.758C9.27983 112.758 10.8006 109.251 12.992 108.268C12.992 108.268 9.27616 109.002 6.29691 110.93C6.29691 110.93 3.94062 110.965 2.99884 107.48C2.99884 107.48 4.39502 105.386 9.07828 104.254C9.07828 104.254 6.22728 103.544 2.11569 104.573C1.80787 104.69 0.495969 100.19 0.0965362 98.1135C-0.302897 96.0372 0.561931 96.0549 2.23295 95.629C3.90397 95.2031 9.59864 94.9192 10.6614 95.8136C11.7241 96.708 12.2408 99.7497 12.2408 99.7497C12.4325 98.5353 12.4682 97.3026 12.347 96.0798C13.7691 96.011 15.1928 96.1766 16.5576 96.5695C18.4375 97.2049 18.3165 98.0922 18.3165 99.4089C18.324 100.742 18.1352 102.07 17.7559 103.352C17.7559 103.352 19.0531 102.263 19.0971 98.2554C19.0971 98.2554 21.6366 100.36 22.6553 102.16C23.6741 103.959 23.4139 108.715 20.966 111.412Z" fill="#1E88E5"/>
<path d="M20.966 111.622C20.9257 111.619 20.8868 111.607 20.8524 111.587C20.8179 111.566 20.789 111.538 20.7681 111.505C16.3267 105.315 6.0807 97.9608 1.93613 97.18C1.87992 97.168 1.83064 97.1355 1.79856 97.0892C1.76647 97.043 1.75406 96.9865 1.76389 96.9316C1.77543 96.8774 1.80826 96.8297 1.85545 96.7986C1.90264 96.7674 1.96049 96.7553 2.01675 96.7648C6.23095 97.5598 16.7811 104.772 21.1602 111.317C21.1743 111.341 21.1827 111.368 21.1851 111.396C21.1875 111.424 21.1837 111.453 21.174 111.479C21.1643 111.506 21.1489 111.53 21.1289 111.55C21.1088 111.57 21.0845 111.586 21.0576 111.597C21.0294 111.612 20.9981 111.62 20.966 111.622V111.622Z" fill="white"/>
<path d="M141.822 94.4223L138.63 92.6476C138.63 92.6476 137.098 84.4844 138.245 77.4499C139.854 67.5759 146.795 64.1687 149.316 65.1518C151.837 66.1349 152.431 69.0559 147.876 74.7631C145.19 78.142 141.745 85.2582 141.822 94.4223Z" fill="#1E88E5"/>
<g opacity="0.2">
<path opacity="0.2" d="M141.822 94.4223L138.63 92.6476C138.63 92.6476 137.098 84.4844 138.245 77.4499C139.854 67.5759 146.795 64.1687 149.316 65.1518C151.837 66.1349 152.431 69.0559 147.876 74.7631C145.19 78.142 141.745 85.2582 141.822 94.4223Z" fill="black"/>
</g>
<path d="M140.664 90.5004H140.697C140.756 90.4916 140.81 90.4607 140.846 90.4143C140.882 90.3679 140.898 90.3097 140.891 90.2519C139.572 81.0062 143.409 70.8767 147.722 66.7951C147.765 66.7541 147.79 66.6982 147.79 66.6397C147.791 66.5811 147.768 66.5246 147.725 66.4827C147.683 66.4409 147.625 66.417 147.565 66.4163C147.504 66.4156 147.446 66.4383 147.403 66.4792C143.006 70.6353 139.099 80.9281 140.44 90.3123C140.448 90.3646 140.474 90.4127 140.515 90.4473C140.557 90.4819 140.609 90.5008 140.664 90.5004V90.5004Z" fill="white"/>
<path d="M150.679 99.377C151.181 99.6574 152.222 99.0469 152.618 98.7878C153.299 98.3387 153.851 97.7277 154.219 97.0132C154.631 96.2006 154.772 95.2839 154.622 94.3903C154.54 93.9184 154.425 93.4524 154.278 92.9955C154.146 92.5447 154.01 92.094 153.875 91.6397C153.712 91.2035 153.643 90.7396 153.673 90.2768C153.794 89.3504 154.644 88.7009 155.414 88.1472C156.267 87.5297 157.154 86.7275 157.151 85.5953C157.089 84.7305 156.732 83.9101 156.136 83.2635C155.586 82.5856 154.934 81.9893 154.435 81.2795C154.043 80.782 153.839 80.1695 153.856 79.5439C153.911 79.1618 154.043 78.7938 154.245 78.4614C154.651 77.7515 155.19 77.0701 155.469 76.2928C155.747 75.5155 155.71 74.543 155.08 73.9823C154.563 73.5244 153.798 73.4605 153.101 73.5067C152.451 73.5854 151.826 73.7997 151.269 74.1349C149.437 75.118 148.4 77.2156 146.458 77.9716C145.725 78.2662 144.889 78.3265 144.112 78.5288C143.335 78.7311 142.536 79.1144 142.174 79.8136C141.463 81.1907 142.786 82.8873 142.284 84.3496C141.84 85.6415 140.543 86.1242 139.814 87.3025C139.517 87.8173 139.398 88.4104 139.473 88.9955C139.535 89.9855 139.783 90.9563 140.206 91.8597C140.681 92.7559 141.224 93.6171 141.829 94.4365C141.851 94.4507 150.598 99.3344 150.679 99.377Z" fill="#1E88E5"/>
<path d="M145.497 96.7044C145.528 96.7035 145.558 96.6968 145.585 96.6847C145.613 96.6726 145.638 96.6554 145.659 96.6339C145.679 96.6125 145.696 96.5873 145.706 96.5598C145.717 96.5323 145.722 96.5031 145.721 96.4737C145.355 87.7249 149.602 78.0639 152.684 75.2564C152.728 75.2164 152.754 75.1611 152.756 75.1025C152.758 75.0439 152.736 74.9869 152.695 74.9441C152.653 74.9013 152.596 74.8761 152.536 74.8741C152.475 74.8721 152.416 74.8934 152.372 74.9335C149.213 77.7977 144.871 87.6184 145.248 96.4915C145.25 96.5215 145.257 96.5509 145.271 96.578C145.284 96.6051 145.303 96.6293 145.326 96.6492C145.349 96.6691 145.377 96.6842 145.406 96.6937C145.435 96.7032 145.467 96.7068 145.497 96.7044V96.7044Z" fill="white"/>
<path d="M146.85 86.3655C146.871 86.3689 146.894 86.3689 146.916 86.3655C149.055 85.789 151.254 85.4415 153.471 85.3291C153.531 85.3255 153.587 85.2993 153.628 85.2563C153.668 85.2132 153.69 85.1566 153.688 85.0984C153.688 85.0691 153.682 85.04 153.669 85.0131C153.657 84.9862 153.639 84.9621 153.617 84.9423C153.594 84.9226 153.568 84.9076 153.539 84.8984C153.51 84.8892 153.48 84.8861 153.449 84.889C151.194 84.9994 148.957 85.3494 146.78 85.9325C146.723 85.9497 146.675 85.9881 146.647 86.0392C146.619 86.0904 146.613 86.1503 146.63 86.2058C146.643 86.2523 146.672 86.2933 146.711 86.3223C146.751 86.3512 146.8 86.3664 146.85 86.3655V86.3655Z" fill="white"/>
<path d="M20.5592 110.241C20.6052 110.849 20.7984 111.438 21.123 111.96C21.4477 112.483 21.8948 112.924 22.4281 113.247L74.8308 142.543C75.4104 142.828 76.0514 142.977 76.7015 142.977C77.3517 142.977 77.9926 142.828 78.5723 142.543L150.243 102.458C150.808 102.169 151.28 101.736 151.61 101.206C151.939 100.677 152.113 100.07 152.113 99.4515C152.113 98.8331 151.939 98.2263 151.61 97.6966C151.28 97.1669 150.808 96.7343 150.243 96.4453L97.8403 67.1465C97.2608 66.8629 96.6207 66.7152 95.9714 66.7152C95.3222 66.7152 94.682 66.8629 94.1025 67.1465L22.4281 107.231C21.8943 107.556 21.447 107.997 21.1222 108.52C20.7975 109.043 20.6047 109.633 20.5592 110.241V110.241Z" fill="#37474F"/>
<path d="M76.6887 139.057V142.961C76.0376 142.975 75.3939 142.826 74.8198 142.528L22.4171 113.233C21.8689 112.953 21.4072 112.537 21.0793 112.028C20.7514 111.519 20.569 110.934 20.5507 110.334C20.5324 109.735 20.679 109.141 20.9754 108.614C21.2717 108.086 21.7073 107.645 22.2376 107.334C21.3984 107.916 21.4644 108.754 22.4281 109.311L74.8308 138.607C75.4006 138.907 76.0399 139.062 76.6887 139.057V139.057Z" fill="#263238"/>
<path d="M18.8039 107.299C18.2838 106.955 17.8541 106.498 17.5492 105.964C17.2444 105.43 17.0729 104.835 17.0486 104.225V43.6719C17.0845 43.0436 17.2723 42.4323 17.5969 41.8873C17.9215 41.3423 18.3739 40.8789 18.9175 40.5344L90.6029 0.449405C91.1599 0.16543 91.7778 0.0117405 92.4072 0.000646553C93.0365 -0.0104474 93.6598 0.121363 94.2271 0.385519C94.7472 0.729422 95.177 1.18658 95.4818 1.72035C95.7866 2.25411 95.9581 2.84963 95.9824 3.45915V64.0125C95.9469 64.6403 95.7591 65.2512 95.4345 65.7957C95.1098 66.3402 94.6572 66.8029 94.1135 67.1465L22.4281 107.231C21.8714 107.516 21.2536 107.67 20.6243 107.682C19.9949 107.694 19.3715 107.562 18.8039 107.299V107.299Z" fill="#455A64"/>
<path d="M22.2083 107.334C21.6717 107.568 21.0889 107.684 20.5008 107.676C19.9127 107.668 19.3335 107.536 18.8039 107.288C18.2835 106.946 17.8537 106.489 17.5494 105.956C17.245 105.422 17.0747 104.827 17.0523 104.218V43.6719C17.0737 43.0447 17.2618 42.4335 17.5983 41.8973L21.1052 43.8529C20.7707 44.3902 20.5816 45.0006 20.5556 45.6275V106.188C20.5556 107.26 21.2775 107.739 22.2083 107.334Z" fill="#263238"/>
<path d="M20.5592 45.6346V106.188C20.5592 107.341 21.3947 107.81 22.4281 107.231L94.1062 67.1465C94.6499 66.8029 95.1024 66.3402 95.4271 65.7957C95.7518 65.2512 95.9395 64.6403 95.9751 64.0125V3.45915C95.9751 2.3021 95.1359 1.83715 94.1062 2.41213L22.4281 42.4971C21.8837 42.8408 21.4307 43.304 21.106 43.8492C20.7812 44.3944 20.5939 45.0061 20.5592 45.6346V45.6346Z" fill="#37474F"/>
<path d="M22.4281 109.325L74.8308 138.621C75.4109 138.904 76.0517 139.052 76.7015 139.052C77.3514 139.052 77.9921 138.904 78.5723 138.621L150.243 98.5358C151.273 97.9573 151.273 97.0203 150.243 96.4453L97.8403 67.1465C97.2608 66.8629 96.6207 66.7152 95.9714 66.7152C95.3222 66.7152 94.682 66.8629 94.1025 67.1465L22.4281 107.231C21.3947 107.81 21.3947 108.754 22.4281 109.325Z" fill="#455A64"/>
<path d="M23.4322 45.8582L92.5451 7.22133C93.1644 6.86641 93.6664 7.15389 93.6664 7.84954V60.2681C93.6452 60.6449 93.5326 61.0115 93.3378 61.3383C93.1429 61.6651 92.8714 61.9429 92.5451 62.1491L23.4322 100.786C22.8129 101.141 22.3109 100.85 22.3109 100.158V47.7393C22.3321 47.3625 22.4447 46.9958 22.6396 46.669C22.8344 46.3422 23.1059 46.0644 23.4322 45.8582V45.8582Z" fill="#1E88E5"/>
<path opacity="0.9" d="M23.4322 45.8582L92.5451 7.22133C93.1644 6.86641 93.6664 7.15389 93.6664 7.84954V60.2681C93.6452 60.6449 93.5326 61.0115 93.3378 61.3383C93.1429 61.6651 92.8714 61.9429 92.5451 62.1491L23.4322 100.786C22.8129 101.141 22.3109 100.85 22.3109 100.158V47.7393C22.3321 47.3625 22.4447 46.9958 22.6396 46.669C22.8344 46.3422 23.1059 46.0644 23.4322 45.8582V45.8582Z" fill="white"/>
<path d="M28.5112 107.757L95.048 70.5502C95.3371 70.4066 95.6574 70.3317 95.9824 70.3317C96.3074 70.3317 96.6277 70.4066 96.9169 70.5502L100.321 72.4525C100.838 72.74 100.838 73.2085 100.321 73.496L33.7735 110.699C33.483 110.841 33.1624 110.914 32.8372 110.914C32.512 110.914 32.1913 110.841 31.9009 110.699L28.5112 108.8C27.9909 108.513 27.9909 108.044 28.5112 107.757Z" fill="#37474F"/>
<path d="M37.2804 112.658L103.322 75.7462C103.612 75.6046 103.932 75.5308 104.257 75.5308C104.581 75.5308 104.902 75.6046 105.191 75.7462L126.123 87.4587C126.64 87.7497 126.64 88.2182 126.123 88.5234L60.1617 125.393C59.8713 125.534 59.5506 125.608 59.2254 125.608C58.9002 125.608 58.5796 125.534 58.2891 125.393L37.2841 113.734C36.7637 113.414 36.7637 112.949 37.2804 112.658Z" fill="#263238"/>
<path d="M96.9242 92.1933L99.0093 91.0292C99.0973 90.9795 99.0899 90.8943 99.0093 90.8411L96.6017 89.4959C96.5501 89.4704 96.493 89.4571 96.435 89.4571C96.377 89.4571 96.3199 89.4704 96.2682 89.4959L94.1721 90.653C94.0842 90.7027 94.0878 90.7843 94.1721 90.8375L96.5797 92.1863C96.6321 92.2147 96.691 92.2302 96.751 92.2315C96.8111 92.2327 96.8706 92.2196 96.9242 92.1933V92.1933ZM92.8126 87.5794L90.7312 88.7435C90.6432 88.7932 90.6469 88.8748 90.7312 88.9281L93.1387 90.2768C93.1904 90.3023 93.2475 90.3156 93.3055 90.3156C93.3634 90.3156 93.4206 90.3023 93.4722 90.2768L95.5573 89.1091C95.6453 89.0594 95.6379 88.9778 95.5573 88.9245L93.1497 87.5758C93.0985 87.548 93.0412 87.5325 92.9825 87.5307C92.9238 87.5288 92.8656 87.5406 92.8126 87.5652V87.5794ZM86.0845 91.3415L82.5556 93.3113C82.4677 93.361 82.475 93.4462 82.5556 93.4995L84.9632 94.8446C85.0148 94.8702 85.072 94.8835 85.1299 94.8835C85.1879 94.8835 85.245 94.8702 85.2967 94.8446L88.8219 92.8748C88.9099 92.8251 88.9062 92.7399 88.8219 92.6867L86.4107 91.3344C86.3606 91.3089 86.305 91.295 86.2485 91.2938C86.1919 91.2926 86.1358 91.304 86.0845 91.3273V91.3415ZM89.7674 89.2794L87.6859 90.4471C87.598 90.4933 87.6017 90.5785 87.6859 90.6317L90.0935 91.9768C90.1451 92.0024 90.2023 92.0157 90.2603 92.0157C90.3182 92.0157 90.3754 92.0024 90.427 91.9768L92.5121 90.8127C92.6001 90.763 92.5927 90.6814 92.5121 90.6281L90.1045 89.2794C90.0536 89.2511 89.9964 89.235 89.9377 89.2325C89.8791 89.23 89.8206 89.2413 89.7674 89.2652V89.2794ZM81.5955 93.8473L79.514 95.0114C79.4224 95.0611 79.4298 95.1463 79.514 95.1995L81.9216 96.5447C81.9733 96.5702 82.0304 96.5836 82.0884 96.5836C82.1463 96.5836 82.2035 96.5702 82.2551 96.5447L84.3366 95.3806C84.4245 95.3309 84.4208 95.2457 84.3366 95.1924L81.929 93.8473C81.8773 93.8217 81.8202 93.8084 81.7622 93.8084C81.7043 93.8084 81.6471 93.8217 81.5955 93.8473V93.8473ZM78.5503 95.5509L76.4688 96.7151C76.3809 96.7647 76.3845 96.8464 76.4688 96.8996L78.8764 98.2483C78.928 98.2739 78.9852 98.2872 79.0432 98.2872C79.1011 98.2872 79.1583 98.2739 79.2099 98.2483L81.2913 97.0806C81.383 97.0309 81.3756 96.9493 81.2913 96.8961L78.8838 95.5509C78.833 95.5237 78.7763 95.5085 78.7183 95.5067C78.6604 95.5048 78.6028 95.5163 78.5503 95.5403V95.5509ZM88.0267 101.027L90.1082 99.8632C90.1998 99.8135 90.1925 99.7284 90.1082 99.6751L87.7006 98.33C87.649 98.3044 87.5918 98.2911 87.5339 98.2911C87.4759 98.2911 87.4187 98.3044 87.3671 98.33L85.2857 99.4941C85.1977 99.5438 85.2014 99.629 85.2857 99.6822L87.6933 101.027C87.7457 101.051 87.8033 101.063 87.8613 101.061C87.9193 101.059 87.976 101.044 88.0267 101.017V101.027ZM84.9815 102.72L87.0666 101.556C87.1546 101.507 87.1472 101.421 87.0666 101.368L84.659 100.023C84.6074 99.9974 84.5503 99.9841 84.4923 99.9841C84.4343 99.9841 84.3772 99.9974 84.3256 100.023L82.2441 101.187C82.1562 101.237 82.1598 101.318 82.2441 101.372L84.6517 102.72C84.7029 102.745 84.7593 102.758 84.8166 102.758C84.8739 102.758 84.9304 102.745 84.9815 102.72V102.72ZM81.9363 104.424L84.0214 103.256C84.1094 103.207 84.102 103.125 84.0214 103.072L81.6138 101.723C81.5622 101.697 81.5051 101.684 81.4471 101.684C81.3891 101.684 81.332 101.697 81.2803 101.723L79.1989 102.887C79.111 102.937 79.1146 103.018 79.1989 103.072L81.6065 104.42C81.6574 104.446 81.7137 104.46 81.771 104.46C81.8282 104.461 81.8849 104.448 81.9363 104.424V104.424ZM78.8911 106.124L80.9762 104.96C81.0641 104.91 81.0568 104.829 80.9762 104.775L78.5649 103.427C78.5133 103.401 78.4562 103.388 78.3982 103.388C78.3402 103.388 78.2831 103.401 78.2315 103.427L76.15 104.584C76.0621 104.633 76.0657 104.719 76.15 104.772L78.5613 106.117C78.6118 106.143 78.668 106.157 78.7253 106.158C78.7826 106.16 78.8394 106.148 78.8911 106.124V106.124ZM93.879 93.8934L95.9641 92.7293C96.052 92.6796 96.0447 92.598 95.9641 92.5447L93.5528 91.196C93.5017 91.1711 93.4452 91.1581 93.3879 91.1581C93.3307 91.1581 93.2742 91.1711 93.223 91.196L91.1379 92.3637C91.05 92.4134 91.0536 92.495 91.1379 92.5483L93.5492 93.897C93.6006 93.9214 93.6572 93.9338 93.7145 93.9332C93.7718 93.9326 93.8281 93.9189 93.879 93.8934V93.8934ZM91.0719 99.3131L95.7186 96.7151C95.8065 96.6654 95.8028 96.5837 95.7186 96.5305L89.8553 93.2581C89.8042 93.2332 89.7477 93.2201 89.6904 93.2201C89.6332 93.2201 89.5767 93.2332 89.5255 93.2581L87.1216 94.6033C87.0336 94.653 87.0373 94.7346 87.1216 94.7878L90.2181 96.5199C90.3134 96.5731 90.3171 96.6583 90.2181 96.708L88.2979 97.7727C88.2063 97.8224 88.2136 97.904 88.2979 97.9573L90.7055 99.3024C90.7602 99.3352 90.8229 99.3535 90.8872 99.3553C90.9516 99.3572 91.0153 99.3426 91.0719 99.3131V99.3131ZM75.5051 97.2403L73.4236 98.408C73.3357 98.4577 73.3393 98.5394 73.4236 98.5926L75.8312 99.9413C75.8828 99.9669 75.94 99.9802 75.9979 99.9802C76.0559 99.9802 76.1131 99.9669 76.1647 99.9413L78.2498 98.7772C78.3377 98.7275 78.3304 98.6458 78.2498 98.5926L75.8422 97.2439C75.7904 97.2172 75.7327 97.203 75.6741 97.2023C75.6154 97.2017 75.5574 97.2148 75.5051 97.2403V97.2403ZM72.4598 98.944L70.3784 100.108C70.2904 100.158 70.2941 100.243 70.3784 100.296L72.786 101.641C72.8376 101.667 72.8947 101.68 72.9527 101.68C73.0107 101.68 73.0678 101.667 73.1195 101.641L75.2046 100.477C75.2925 100.428 75.2852 100.342 75.2046 100.293L72.797 98.944C72.7449 98.9178 72.6871 98.9042 72.6284 98.9042C72.5697 98.9042 72.5119 98.9178 72.4598 98.944V98.944ZM57.2448 118.035C57.2964 118.061 57.3535 118.074 57.4115 118.074C57.4695 118.074 57.5266 118.061 57.5782 118.035L59.6633 116.871C59.7513 116.821 59.744 116.74 59.6633 116.687L57.2557 115.338C57.2041 115.312 57.147 115.299 57.089 115.299C57.031 115.299 56.9739 115.312 56.9223 115.338L54.8408 116.502C54.7529 116.552 54.7565 116.637 54.8408 116.69L57.2448 118.035ZM48.1018 112.566L46.0203 113.723C45.9324 113.773 45.936 113.854 46.0203 113.908L48.4279 115.256C48.4795 115.282 48.5367 115.295 48.5946 115.295C48.6526 115.295 48.7098 115.282 48.7614 115.256L50.8428 114.092C50.9344 114.042 50.9271 113.957 50.8428 113.904L48.4352 112.559C48.383 112.534 48.3256 112.522 48.2676 112.523C48.2097 112.525 48.1528 112.539 48.1018 112.566V112.566ZM53.0049 116.562C53.056 116.587 53.1125 116.6 53.1698 116.6C53.2271 116.6 53.2836 116.587 53.3347 116.562L55.4198 115.398C55.5078 115.348 55.5004 115.267 55.4198 115.214L53.0122 113.865C52.9606 113.839 52.9035 113.826 52.8455 113.826C52.7875 113.826 52.7304 113.839 52.6788 113.865L50.5973 115.033C50.5094 115.082 50.513 115.164 50.5973 115.217L53.0049 116.562ZM62.6206 119.075L64.7057 117.911C64.7937 117.861 64.79 117.776 64.7057 117.723L62.2945 116.378C62.2433 116.353 62.1868 116.34 62.1296 116.34C62.0723 116.34 62.0158 116.353 61.9647 116.378L59.8795 117.542C59.7916 117.592 59.7953 117.677 59.8795 117.73L62.2908 119.075C62.3422 119.1 62.3989 119.112 62.4561 119.111C62.5134 119.111 62.5697 119.097 62.6206 119.072V119.075ZM59.2456 120.772C59.2967 120.797 59.3532 120.81 59.4105 120.81C59.4678 120.81 59.5242 120.797 59.5754 120.772L61.6605 119.604C61.7484 119.554 61.7448 119.473 61.6605 119.419L59.2492 118.074C59.1981 118.049 59.1416 118.036 59.0843 118.036C59.0271 118.036 58.9706 118.049 58.9194 118.074L56.8343 119.238C56.7464 119.288 56.75 119.37 56.8343 119.423L59.2456 120.772ZM51.147 110.866L49.0655 112.03C48.9739 112.08 48.9813 112.165 49.0655 112.218L51.4731 113.563C51.5248 113.589 51.5819 113.602 51.6399 113.602C51.6978 113.602 51.755 113.589 51.8066 113.563L53.888 112.399C53.9797 112.349 53.9723 112.268 53.888 112.215L51.4805 110.866C51.4291 110.84 51.3721 110.826 51.3142 110.825C51.2562 110.825 51.1989 110.837 51.147 110.862V110.866ZM66.3731 102.348L64.288 103.512C64.2 103.562 64.2037 103.643 64.288 103.696L66.6992 105.045C66.7504 105.07 66.8068 105.083 66.8641 105.083C66.9214 105.083 66.9779 105.07 67.029 105.045L69.1141 103.877C69.2021 103.828 69.1984 103.746 69.1141 103.693L66.7029 102.344C66.65 102.322 66.5926 102.313 66.5354 102.317C66.4781 102.32 66.4225 102.337 66.3731 102.365V102.348ZM54.1922 109.155L52.1071 110.323C52.0191 110.372 52.0265 110.454 52.1071 110.507L54.5147 111.856C54.5663 111.882 54.6234 111.895 54.6814 111.895C54.7394 111.895 54.7965 111.882 54.8482 111.856L56.9296 110.692C57.0176 110.642 57.0139 110.561 56.9296 110.507L54.522 109.159C54.4709 109.134 54.4144 109.121 54.3571 109.121C54.2998 109.121 54.2434 109.134 54.1922 109.159V109.155ZM69.4146 100.637L67.3332 101.801C67.2452 101.851 67.2489 101.932 67.3332 101.986L69.7444 103.334C69.7956 103.359 69.8521 103.372 69.9093 103.372C69.9666 103.372 70.0231 103.359 70.0742 103.334L72.1594 102.17C72.2473 102.121 72.24 102.035 72.1594 101.982L69.7481 100.637C69.6956 100.613 69.638 100.602 69.58 100.603C69.5221 100.605 69.4654 100.62 69.4146 100.648V100.637ZM63.3242 104.051L61.2427 105.205C61.1548 105.254 61.1585 105.34 61.2427 105.393L63.654 106.738C63.7056 106.764 63.7628 106.777 63.8207 106.777C63.8787 106.777 63.9358 106.764 63.9875 106.738L66.0689 105.574C66.1569 105.524 66.1532 105.443 66.0689 105.389L63.6577 104.041C63.6052 104.017 63.5476 104.005 63.4896 104.007C63.4316 104.009 63.3749 104.024 63.3242 104.051V104.051ZM60.279 105.755L58.1939 106.919C58.1059 106.969 58.1132 107.054 58.1939 107.107L60.6015 108.452C60.6531 108.478 60.7102 108.491 60.7682 108.491C60.8262 108.491 60.8833 108.478 60.9349 108.452L63.0164 107.288C63.1043 107.239 63.1007 107.153 63.0164 107.1L60.6088 105.755C60.5581 105.731 60.5023 105.718 60.4457 105.718C60.3891 105.718 60.3333 105.731 60.2826 105.755H60.279ZM57.2338 107.459L55.1486 108.623C55.0607 108.672 55.068 108.754 55.1486 108.807L57.5562 110.156C57.6079 110.182 57.665 110.195 57.723 110.195C57.7809 110.195 57.8381 110.182 57.8897 110.156L59.9712 108.988C60.0591 108.942 60.0554 108.857 59.9712 108.804L57.5636 107.459C57.5129 107.434 57.4571 107.421 57.4005 107.421C57.3439 107.421 57.2881 107.434 57.2374 107.459H57.2338ZM72.797 109.531L74.8821 108.364C74.97 108.317 74.9664 108.232 74.8821 108.179L72.4708 106.834C72.4197 106.809 72.3632 106.796 72.3059 106.796C72.2487 106.796 72.1922 106.809 72.141 106.834L70.0559 107.998C69.968 108.048 69.9716 108.129 70.0559 108.183L72.4672 109.531C72.5188 109.557 72.5759 109.57 72.6339 109.57C72.6919 109.57 72.749 109.557 72.8006 109.531H72.797ZM99.548 83.7994L97.4629 84.9742C97.3713 85.0239 97.3786 85.1091 97.4629 85.1623L99.8705 86.5075C99.9221 86.533 99.9792 86.5464 100.037 86.5464C100.095 86.5464 100.152 86.533 100.204 86.5075L102.285 85.3433C102.373 85.2937 102.37 85.212 102.285 85.1588L99.8778 83.8101C99.827 83.7829 99.7704 83.7677 99.7124 83.7659C99.6544 83.764 99.5968 83.7755 99.5443 83.7994H99.548ZM95.8615 85.8615L93.78 87.0257C93.6884 87.0754 93.6957 87.157 93.78 87.2102L96.1876 88.5589C96.2392 88.5845 96.2964 88.5978 96.3544 88.5978C96.4123 88.5978 96.4695 88.5845 96.5211 88.5589L98.6025 87.3948C98.6941 87.3451 98.6868 87.2599 98.6025 87.2067L96.195 85.8615C96.1429 85.8354 96.085 85.8217 96.0264 85.8217C95.9677 85.8217 95.9099 85.8354 95.8578 85.8615H95.8615ZM102.593 82.0958L100.508 83.2635C100.42 83.3132 100.427 83.3948 100.508 83.4481L102.916 84.7968C102.967 84.8223 103.024 84.8356 103.082 84.8356C103.14 84.8356 103.198 84.8223 103.249 84.7968L105.331 83.6326C105.419 83.5829 105.415 83.5013 105.331 83.4481L102.923 82.0993C102.872 82.0732 102.815 82.0593 102.757 82.0587C102.699 82.0581 102.641 82.0708 102.59 82.0958H102.593ZM86.8358 97.8366L88.9209 96.6725C89.0088 96.6228 89.0015 96.5411 88.9209 96.4879L86.5133 95.1392C86.4617 95.1137 86.4045 95.1003 86.3466 95.1003C86.2886 95.1003 86.2314 95.1137 86.1798 95.1392L84.0984 96.3069C84.0104 96.3566 84.0141 96.4382 84.0984 96.4915L86.506 97.8402C86.5564 97.8634 86.6117 97.8752 86.6676 97.8746C86.7235 97.874 86.7785 97.861 86.8284 97.8366H86.8358ZM105.972 80.4028C105.921 80.3779 105.864 80.3649 105.807 80.3649C105.75 80.3649 105.693 80.3779 105.642 80.4028L103.557 81.567C103.469 81.6167 103.476 81.6983 103.557 81.7515L105.965 83.1002C106.016 83.1258 106.073 83.1391 106.131 83.1391C106.189 83.1391 106.246 83.1258 106.298 83.1002L108.379 81.9325C108.467 81.8828 108.464 81.8012 108.379 81.748L105.972 80.4028ZM75.8532 107.828L77.9383 106.664C78.0263 106.614 78.0226 106.529 77.9383 106.475L75.527 105.13C75.4759 105.105 75.4194 105.092 75.3621 105.092C75.3049 105.092 75.2484 105.105 75.1972 105.13L73.1121 106.294C73.0242 106.344 73.0278 106.429 73.1121 106.479L75.5234 107.828C75.5736 107.852 75.6287 107.864 75.6846 107.864C75.7405 107.864 75.7957 107.852 75.8459 107.828H75.8532ZM113.195 86.9476L115.276 85.7834C115.364 85.7338 115.36 85.6486 115.276 85.5953L112.85 84.2644C112.799 84.2388 112.741 84.2255 112.683 84.2255C112.625 84.2255 112.568 84.2388 112.517 84.2644L110.432 85.4285C110.344 85.4782 110.351 85.5634 110.432 85.6166L112.839 86.9618C112.894 86.9876 112.954 86.9998 113.015 86.9973C113.076 86.9948 113.135 86.9778 113.187 86.9476H113.195ZM106.708 86.7275L108.79 85.5598C108.878 85.5102 108.874 85.4285 108.79 85.3753L106.382 84.0266C106.331 84.001 106.274 83.9877 106.216 83.9877C106.158 83.9877 106.1 84.001 106.049 84.0266L103.967 85.1907C103.876 85.2404 103.883 85.322 103.967 85.3753L106.375 86.724C106.425 86.7489 106.481 86.7622 106.538 86.7629C106.594 86.7635 106.65 86.7514 106.701 86.7275H106.708ZM109.417 82.3265C109.365 82.301 109.308 82.2876 109.25 82.2876C109.192 82.2876 109.135 82.301 109.083 82.3265L106.998 83.4906C106.91 83.5403 106.917 83.6255 106.998 83.6752L109.406 85.0239C109.457 85.0495 109.514 85.0628 109.572 85.0628C109.63 85.0628 109.687 85.0495 109.739 85.0239L111.82 83.8598C111.908 83.8101 111.905 83.7249 111.82 83.6717L109.417 82.3265ZM110.058 81.9716L115.921 85.2404C115.973 85.266 116.03 85.2793 116.088 85.2793C116.146 85.2793 116.203 85.266 116.255 85.2404L118.336 84.0763C118.424 84.0266 118.42 83.945 118.336 83.8917L112.473 80.6193C112.422 80.5944 112.365 80.5814 112.308 80.5814C112.251 80.5814 112.194 80.5944 112.143 80.6193L110.036 81.7799C109.948 81.8296 109.955 81.9148 110.051 81.968L110.058 81.9716ZM102.993 85.7267L100.911 86.8944C100.82 86.9405 100.827 87.0257 100.911 87.0789L103.319 88.4241C103.37 88.4496 103.428 88.4629 103.486 88.4629C103.543 88.4629 103.601 88.4496 103.652 88.4241L105.734 87.2599C105.825 87.2102 105.818 87.1286 105.734 87.0754L103.326 85.7267C103.274 85.6994 103.216 85.6848 103.156 85.6842C103.097 85.6836 103.038 85.6969 102.985 85.7231L102.993 85.7267ZM80.0711 98.5394L77.9823 99.7035C77.8943 99.7532 77.898 99.8348 77.9823 99.8881L80.3935 101.237C80.4447 101.262 80.5012 101.275 80.5584 101.275C80.6157 101.275 80.6722 101.262 80.7233 101.237L82.8085 100.073C82.8964 100.023 82.8891 99.9378 82.8085 99.8845L80.3972 98.5394C80.3465 98.515 80.2907 98.5023 80.2341 98.5023C80.1775 98.5023 80.1217 98.515 80.0711 98.5394V98.5394ZM109.809 88.6441C109.86 88.6697 109.917 88.683 109.975 88.683C110.033 88.683 110.091 88.6697 110.142 88.6441L112.224 87.48C112.315 87.4303 112.308 87.3451 112.224 87.2919L109.816 85.9467C109.764 85.9212 109.707 85.9078 109.649 85.9078C109.591 85.9078 109.534 85.9212 109.483 85.9467L107.39 87.1038C107.298 87.1534 107.306 87.2351 107.39 87.2883L109.809 88.6441ZM83.1126 96.8357L81.0312 97.9999C80.9432 98.0496 80.9469 98.1348 81.0312 98.188L83.4424 99.5331C83.4936 99.5581 83.55 99.5711 83.6073 99.5711C83.6646 99.5711 83.7211 99.5581 83.7722 99.5331L85.8573 98.369C85.9453 98.3193 85.938 98.2341 85.8573 98.1844L83.4497 96.8357C83.3977 96.8096 83.3398 96.796 83.2812 96.796C83.2225 96.796 83.1647 96.8096 83.1126 96.8357V96.8357ZM60.29 116.335C60.3416 116.361 60.3987 116.374 60.4567 116.374C60.5147 116.374 60.5718 116.361 60.6234 116.335L62.7049 115.167C62.7965 115.118 62.7892 115.036 62.7049 114.983L60.2973 113.634C60.2457 113.609 60.1885 113.595 60.1306 113.595C60.0726 113.595 60.0154 113.609 59.9638 113.634L57.8714 114.788C57.7798 114.837 57.7871 114.919 57.8714 114.972L60.29 116.335ZM55.7093 112.161L53.6279 113.325C53.5399 113.375 53.5436 113.457 53.6279 113.51L56.0355 114.859C56.0871 114.884 56.1442 114.898 56.2022 114.898C56.2602 114.898 56.3173 114.884 56.3689 114.859L58.454 113.691C58.542 113.641 58.5347 113.56 58.454 113.506L56.0465 112.158C55.9941 112.132 55.9361 112.119 55.8774 112.12C55.8188 112.12 55.7611 112.135 55.7093 112.161ZM63.6687 114.646L65.7501 113.482C65.8381 113.432 65.8344 113.347 65.7501 113.293L63.3242 111.948C63.2726 111.923 63.2154 111.909 63.1575 111.909C63.0995 111.909 63.0423 111.923 62.9907 111.948L60.9056 113.112C60.8177 113.162 60.825 113.244 60.9056 113.297L63.3132 114.646C63.3682 114.674 63.4297 114.688 63.4919 114.687C63.5541 114.686 63.6149 114.669 63.6687 114.639V114.646ZM66.7139 112.942L68.7953 111.778C68.8833 111.728 68.8796 111.643 68.7953 111.593L66.3877 110.245C66.3361 110.219 66.279 110.206 66.221 110.206C66.163 110.206 66.1059 110.219 66.0543 110.245L63.9691 111.409C63.8812 111.459 63.8885 111.544 63.9691 111.597L66.3767 112.942C66.4294 112.967 66.4875 112.98 66.5462 112.978C66.6049 112.977 66.6624 112.962 66.7139 112.935V112.942ZM69.7591 111.238L71.8405 110.074C71.9285 110.025 71.9248 109.943 71.8405 109.89L69.4293 108.541C69.3781 108.516 69.3217 108.503 69.2644 108.503C69.2071 108.503 69.1506 108.516 69.0995 108.541L66.9887 109.695C66.9008 109.744 66.9081 109.826 66.9887 109.879L69.3963 111.224C69.4503 111.257 69.5121 111.275 69.5758 111.278C69.6394 111.28 69.7026 111.267 69.7591 111.238V111.238ZM58.7655 110.465L56.6841 111.629C56.5961 111.679 56.5998 111.76 56.6841 111.813L59.0917 113.162C59.1433 113.188 59.2004 113.201 59.2584 113.201C59.3164 113.201 59.3735 113.188 59.4251 113.162L61.5103 111.998C61.5982 111.948 61.5909 111.863 61.5103 111.81L59.1027 110.465C59.0498 110.436 58.9903 110.42 58.9295 110.419C58.8688 110.417 58.8086 110.431 58.7545 110.458L58.7655 110.465ZM61.8107 108.761L59.7293 109.925C59.6377 109.975 59.645 110.06 59.7293 110.113L62.1369 111.459C62.1885 111.484 62.2457 111.497 62.3036 111.497C62.3616 111.497 62.4187 111.484 62.4704 111.459L64.5518 110.294C64.6434 110.245 64.6361 110.163 64.5518 110.11L62.1442 108.761C62.0918 108.733 62.033 108.717 61.9729 108.716C61.9128 108.715 61.8534 108.728 61.7997 108.754L61.8107 108.761ZM73.9916 101.95L71.9065 103.114C71.8186 103.164 71.8222 103.249 71.9065 103.302L74.3178 104.648C74.3689 104.673 74.4254 104.686 74.4827 104.686C74.5399 104.686 74.5964 104.673 74.6476 104.648L76.7327 103.483C76.8206 103.434 76.817 103.352 76.7327 103.299L74.3214 101.95C74.2695 101.922 74.2113 101.907 74.1519 101.906C74.0926 101.905 74.0338 101.917 73.9806 101.943L73.9916 101.95ZM70.9464 103.654L68.8613 104.818C68.7733 104.868 68.7807 104.953 68.8613 105.006L71.2689 106.351C71.3205 106.377 71.3776 106.39 71.4356 106.39C71.4936 106.39 71.5507 106.377 71.6023 106.351L73.6838 105.187C73.7717 105.137 73.7681 105.052 73.6838 104.999L71.2725 103.654C71.221 103.627 71.1635 103.612 71.1049 103.61C71.0462 103.609 70.9881 103.622 70.9354 103.647L70.9464 103.654ZM77.0258 100.236L74.9407 101.4C74.8528 101.45 74.8564 101.531 74.9407 101.585L77.352 102.933C77.4031 102.958 77.4596 102.971 77.5169 102.971C77.5742 102.971 77.6306 102.958 77.6818 102.933L79.7669 101.766C79.8548 101.716 79.8512 101.634 79.7669 101.581L77.3556 100.232C77.3042 100.208 77.2476 100.196 77.1903 100.196C77.133 100.197 77.0767 100.21 77.0258 100.236V100.236ZM64.845 107.05L62.7635 108.218C62.6719 108.268 62.6792 108.349 62.7635 108.403L65.1711 109.751C65.2227 109.777 65.2799 109.79 65.3378 109.79C65.3958 109.79 65.453 109.777 65.5046 109.751L67.586 108.587C67.674 108.538 67.6703 108.456 67.586 108.403L65.1784 107.054C65.1271 107.028 65.0701 107.014 65.0121 107.013C64.9542 107.013 64.8969 107.025 64.845 107.05V107.05ZM67.8902 105.35L65.8051 106.514C65.7171 106.564 65.7245 106.646 65.8051 106.699L68.2127 108.048C68.2643 108.073 68.3214 108.087 68.3794 108.087C68.4374 108.087 68.4945 108.073 68.5461 108.048L70.6276 106.88C70.7155 106.834 70.7119 106.749 70.6276 106.695L68.22 105.35C68.1688 105.325 68.1124 105.312 68.0551 105.312C67.9978 105.312 67.9413 105.325 67.8902 105.35V105.35ZM65.6658 117.368L67.7509 116.204C67.8389 116.154 67.8316 116.073 67.7509 116.019L65.3397 114.671C65.2885 114.646 65.2321 114.633 65.1748 114.633C65.1175 114.633 65.061 114.646 65.0099 114.671L62.9248 115.835C62.8368 115.884 62.8405 115.97 62.9248 116.023L65.336 117.368C65.3872 117.393 65.4436 117.406 65.5009 117.406C65.5582 117.406 65.6147 117.393 65.6658 117.368V117.368ZM47.7976 115.622L45.39 114.273C45.3384 114.248 45.2813 114.234 45.2233 114.234C45.1653 114.234 45.1082 114.248 45.0565 114.273L42.9751 115.437C42.8872 115.487 42.8908 115.569 42.9751 115.622L45.3827 116.97C45.4343 116.996 45.4915 117.009 45.5494 117.009C45.6074 117.009 45.6645 116.996 45.7162 116.97L47.8013 115.803C47.9002 115.757 47.8929 115.675 47.7976 115.622V115.622ZM52.3636 116.917L49.9524 115.572C49.9012 115.547 49.8447 115.534 49.7874 115.534C49.7302 115.534 49.6737 115.547 49.6225 115.572L46.4161 117.364C46.3281 117.414 46.3318 117.496 46.4161 117.549L48.8273 118.898C48.8785 118.923 48.935 118.936 48.9922 118.936C49.0495 118.936 49.106 118.923 49.1571 118.898L52.3636 117.105C52.4625 117.056 52.4589 116.97 52.3636 116.917ZM44.1038 113.013L41.7035 111.671C41.6524 111.647 41.5959 111.634 41.5386 111.634C41.4813 111.634 41.4249 111.647 41.3737 111.671L38.8085 113.091C38.7206 113.141 38.7243 113.223 38.8085 113.276L41.2198 114.624C41.2709 114.649 41.3274 114.662 41.3847 114.662C41.442 114.662 41.4985 114.649 41.5496 114.624L44.1148 113.205C44.2027 113.155 44.1991 113.07 44.1038 113.013ZM46.068 111.913C46.1196 111.938 46.1767 111.952 46.2347 111.952C46.2927 111.952 46.3498 111.938 46.4014 111.913L48.4829 110.749C48.5745 110.699 48.5672 110.617 48.4829 110.564L46.0753 109.215C46.0237 109.19 45.9665 109.177 45.9086 109.177C45.8506 109.177 45.7934 109.19 45.7418 109.215L43.6604 110.383C43.5688 110.433 43.5761 110.514 43.6604 110.568L46.068 111.913ZM56.6035 118.39L54.1959 117.045C54.1442 117.019 54.0871 117.006 54.0291 117.006C53.9712 117.006 53.914 117.019 53.8624 117.045L49.8571 119.285C49.7691 119.334 49.7728 119.419 49.8571 119.473L52.2683 120.818C52.3195 120.843 52.376 120.856 52.4332 120.856C52.4905 120.856 52.547 120.843 52.5981 120.818L56.6071 118.578C56.7061 118.532 56.6987 118.447 56.6035 118.394V118.39ZM58.6043 121.123L56.193 119.774C56.1419 119.749 56.0854 119.736 56.0281 119.736C55.9709 119.736 55.9144 119.749 55.8632 119.774L53.2981 121.194C53.2101 121.244 53.2138 121.329 53.2981 121.382L55.7093 122.727C55.7605 122.752 55.8169 122.765 55.8742 122.765C55.9315 122.765 55.988 122.752 56.0391 122.727L58.6043 121.308C58.7032 121.262 58.6996 121.176 58.6043 121.127V121.123ZM68.7074 99.2563C68.759 99.2818 68.8161 99.2952 68.8741 99.2952C68.9321 99.2952 68.9892 99.2818 69.0408 99.2563L71.1223 98.0886C71.2102 98.0389 71.2066 97.9573 71.1223 97.904L68.7147 96.5553C68.6631 96.5298 68.6059 96.5165 68.548 96.5165C68.49 96.5165 68.4329 96.5298 68.3812 96.5553L66.2961 97.7195C66.2082 97.7692 66.2155 97.8508 66.2961 97.904L68.7074 99.2563ZM62.6169 102.66C62.6686 102.686 62.7257 102.699 62.7837 102.699C62.8416 102.699 62.8988 102.686 62.9504 102.66L65.0319 101.496C65.1235 101.446 65.1161 101.361 65.0319 101.308L62.6243 99.9626C62.5726 99.9371 62.5155 99.9237 62.4575 99.9237C62.3996 99.9237 62.3424 99.9371 62.2908 99.9626L60.2093 101.127C60.1177 101.176 60.1251 101.262 60.2093 101.315L62.6169 102.66ZM49.1132 110.213C49.1648 110.238 49.2219 110.252 49.2799 110.252C49.3379 110.252 49.395 110.238 49.4466 110.213L51.5281 109.045C51.616 108.995 51.6124 108.914 51.5281 108.861L49.1205 107.512C49.0689 107.486 49.0117 107.473 48.9538 107.473C48.8958 107.473 48.8387 107.486 48.787 107.512L46.7019 108.676C46.614 108.726 46.6213 108.807 46.7019 108.861L49.1132 110.213ZM65.6622 100.946C65.7138 100.971 65.7709 100.985 65.8289 100.985C65.8869 100.985 65.944 100.971 65.9956 100.946L68.0771 99.7816C68.165 99.7319 68.1614 99.6503 68.0771 99.597L65.6695 98.2483C65.6179 98.2228 65.5607 98.2095 65.5028 98.2095C65.4448 98.2095 65.3876 98.2228 65.336 98.2483L63.2546 99.416C63.163 99.4622 63.1703 99.5473 63.2546 99.6006L65.6622 100.946ZM59.5717 104.353C59.6233 104.379 59.6805 104.392 59.7385 104.392C59.7964 104.392 59.8536 104.379 59.9052 104.353L61.9903 103.189C62.0783 103.139 62.0709 103.054 61.9903 103.001L59.5827 101.656C59.5311 101.63 59.474 101.617 59.416 101.617C59.358 101.617 59.3009 101.63 59.2492 101.656L57.1678 102.82C57.0798 102.869 57.0835 102.951 57.1678 103.004L59.5717 104.353ZM60.279 121.332C60.2274 121.307 60.1702 121.294 60.1122 121.294C60.0543 121.294 59.9971 121.307 59.9455 121.332L56.7281 123.132C56.6401 123.182 56.6474 123.263 56.7281 123.317L59.1393 124.662C59.1909 124.687 59.2481 124.701 59.306 124.701C59.364 124.701 59.4212 124.687 59.4728 124.662L62.6756 122.887C62.7635 122.837 62.7599 122.756 62.6756 122.702L60.279 121.332ZM55.2036 106.781C55.2552 106.806 55.3124 106.82 55.3703 106.82C55.4283 106.82 55.4855 106.806 55.5371 106.781L57.6185 105.617C57.7065 105.567 57.7028 105.485 57.6185 105.432L55.2109 104.083C55.1593 104.058 55.1022 104.044 55.0442 104.044C54.9862 104.044 54.9291 104.058 54.8775 104.083L52.7924 105.247C52.7044 105.297 52.7117 105.382 52.7924 105.436L55.2036 106.781ZM52.1584 108.484C52.21 108.51 52.2672 108.523 52.3251 108.523C52.3831 108.523 52.4402 108.51 52.4919 108.484L54.5733 107.32C54.6613 107.27 54.6576 107.185 54.5733 107.132L52.1657 105.787C52.1141 105.761 52.057 105.748 51.999 105.748C51.941 105.748 51.8839 105.761 51.8323 105.787L49.7361 106.979C49.6482 107.029 49.6555 107.114 49.7361 107.164L52.1584 108.484ZM116.687 89.8012C116.635 89.7756 116.578 89.7623 116.52 89.7623C116.462 89.7623 116.405 89.7756 116.353 89.8012L111.223 92.6689C111.135 92.7186 111.139 92.8038 111.223 92.857L113.634 94.2022C113.686 94.2272 113.742 94.2402 113.799 94.2402C113.857 94.2402 113.913 94.2272 113.964 94.2022L119.095 91.3344C119.182 91.2847 119.175 91.2031 119.095 91.1499L116.687 89.8012ZM109.955 93.5634C109.904 93.5384 109.848 93.5254 109.79 93.5254C109.733 93.5254 109.677 93.5384 109.625 93.5634L107.54 94.7275C107.452 94.7772 107.456 94.8588 107.54 94.9121L109.952 96.2608C110.003 96.2857 110.059 96.2987 110.116 96.2987C110.174 96.2987 110.23 96.2857 110.281 96.2608L112.366 95.0931C112.454 95.0434 112.451 94.9617 112.366 94.9085L109.955 93.5634ZM68.711 115.668L70.7962 114.5C70.8841 114.451 70.8768 114.369 70.7962 114.316L68.3886 112.967C68.3369 112.941 68.2798 112.928 68.2218 112.928C68.1639 112.928 68.1067 112.941 68.0551 112.967L65.9736 114.131C65.8857 114.181 65.8894 114.262 65.9736 114.316L68.3849 115.664C68.4353 115.689 68.491 115.703 68.5475 115.703C68.6041 115.704 68.6601 115.692 68.711 115.668ZM103.868 96.9706C103.817 96.9451 103.76 96.9317 103.702 96.9317C103.644 96.9317 103.587 96.9451 103.535 96.9706L101.435 98.1277C101.347 98.1773 101.355 98.2625 101.435 98.3158L103.843 99.6609C103.894 99.6865 103.952 99.6998 104.01 99.6998C104.068 99.6998 104.125 99.6865 104.176 99.6609L106.258 98.4968C106.346 98.4471 106.342 98.3619 106.258 98.3087L103.868 96.9706ZM119.732 88.0975C119.681 88.072 119.623 88.0587 119.565 88.0587C119.507 88.0587 119.45 88.072 119.399 88.0975L117.317 89.2652C117.229 89.3149 117.233 89.3966 117.317 89.4498L119.725 90.7985C119.776 90.824 119.834 90.8374 119.892 90.8374C119.95 90.8374 120.007 90.824 120.058 90.7985L122.143 89.6344C122.231 89.5847 122.224 89.503 122.143 89.4498L119.732 88.0975ZM125.185 87.7426L119.322 84.4702C119.27 84.4447 119.213 84.4314 119.155 84.4314C119.097 84.4314 119.04 84.4447 118.988 84.4702L116.907 85.6344C116.815 85.6841 116.823 85.7657 116.907 85.8189L122.77 89.0913C122.822 89.1169 122.879 89.1302 122.937 89.1302C122.995 89.1302 123.052 89.1169 123.104 89.0913L125.185 87.9236C125.288 87.881 125.28 87.8136 125.185 87.7426ZM92.4901 103.334C92.4385 103.309 92.3814 103.295 92.3234 103.295C92.2654 103.295 92.2083 103.309 92.1566 103.334L89.5915 104.754C89.5035 104.804 89.5072 104.885 89.5915 104.939L92.0027 106.287C92.0539 106.312 92.1104 106.325 92.1676 106.325C92.2249 106.325 92.2814 106.312 92.3325 106.287L94.8977 104.868C94.9857 104.821 94.982 104.736 94.8977 104.683L92.4901 103.334ZM100.186 99.0327C100.134 99.0072 100.077 98.9938 100.019 98.9938C99.9609 98.9938 99.9038 99.0072 99.8521 99.0327L96.6457 100.825C96.5577 100.875 96.5651 100.956 96.6457 101.01L99.0533 102.358C99.1049 102.384 99.162 102.397 99.22 102.397C99.278 102.397 99.3351 102.384 99.3867 102.358L102.59 100.584C102.677 100.534 102.674 100.449 102.59 100.396L100.186 99.0327ZM85.4396 107.274C85.3884 107.249 85.3319 107.236 85.2747 107.236C85.2174 107.236 85.1609 107.249 85.1098 107.274L67.9598 116.857C67.8719 116.907 67.8792 116.992 67.9598 117.045L70.3674 118.39C70.419 118.416 70.4762 118.429 70.5341 118.429C70.5921 118.429 70.6493 118.416 70.7009 118.39L87.8472 108.807C87.9351 108.758 87.9315 108.676 87.8472 108.623L85.4396 107.274ZM67.3332 117.403C67.2816 117.378 67.2244 117.365 67.1664 117.365C67.1085 117.365 67.0513 117.378 66.9997 117.403L64.4345 118.823C64.3466 118.873 64.3539 118.955 64.4345 119.008L66.8421 120.356C66.8938 120.382 66.9509 120.395 67.0089 120.395C67.0668 120.395 67.124 120.382 67.1756 120.356L69.7408 118.937C69.8287 118.887 69.8251 118.805 69.7408 118.752L67.3332 117.403ZM88.9539 105.304C88.9027 105.279 88.8462 105.266 88.7889 105.266C88.7317 105.266 88.6752 105.279 88.6241 105.304L86.0589 106.724C85.9709 106.774 85.9746 106.859 86.0589 106.908L88.4701 108.257C88.5213 108.282 88.5778 108.295 88.635 108.295C88.6923 108.295 88.7488 108.282 88.7999 108.257L91.3651 106.837C91.4531 106.788 91.4494 106.706 91.3651 106.653L88.9539 105.304ZM63.7969 119.373C63.7453 119.348 63.6882 119.334 63.6302 119.334C63.5722 119.334 63.5151 119.348 63.4634 119.373L60.8983 120.793C60.8103 120.843 60.8177 120.928 60.8983 120.978L63.3095 122.326C63.3612 122.352 63.4183 122.365 63.4763 122.365C63.5342 122.365 63.5914 122.352 63.643 122.326L66.2082 120.907C66.2961 120.857 66.2925 120.775 66.2082 120.722L63.7969 119.373ZM96.0081 101.361C95.9564 101.335 95.8993 101.322 95.8413 101.322C95.7833 101.322 95.7262 101.335 95.6746 101.361L93.1094 102.781C93.0215 102.83 93.0288 102.916 93.1094 102.969L95.5207 104.314C95.5723 104.339 95.6294 104.353 95.6874 104.353C95.7454 104.353 95.8025 104.339 95.8541 104.314L98.4193 102.894C98.5073 102.845 98.5036 102.763 98.4193 102.71L96.0081 101.361ZM106.91 95.267C106.859 95.242 106.802 95.229 106.745 95.229C106.688 95.229 106.631 95.242 106.58 95.267L104.495 96.4347C104.407 96.4808 104.414 96.566 104.495 96.6192L106.906 97.9644C106.957 97.9894 107.014 98.0024 107.071 98.0024C107.129 98.0024 107.185 97.9894 107.236 97.9644L109.321 96.8002C109.409 96.7506 109.406 96.6689 109.321 96.6157L106.91 95.267ZM113.583 90.5749L115.665 89.4108C115.756 89.3611 115.749 89.2759 115.665 89.2226L113.257 87.8775C113.205 87.8519 113.148 87.8386 113.09 87.8386C113.032 87.8386 112.975 87.8519 112.923 87.8775L110.842 89.0416C110.754 89.0913 110.758 89.1765 110.842 89.2297L113.25 90.5749C113.301 90.6004 113.358 90.6138 113.416 90.6138C113.474 90.6138 113.531 90.6004 113.583 90.5749V90.5749ZM99.9694 90.4897L102.055 89.3256C102.142 89.2759 102.135 89.1907 102.055 89.1375L99.6469 87.7923C99.5953 87.7668 99.5382 87.7534 99.4802 87.7534C99.4222 87.7534 99.3651 87.7668 99.3135 87.7923L97.232 88.9565C97.1441 89.0061 97.1477 89.0913 97.232 89.1446L99.6396 90.4897C99.6908 90.5147 99.7472 90.5277 99.8045 90.5277C99.8618 90.5277 99.9183 90.5147 99.9694 90.4897V90.4897ZM93.0691 102.046L99.1596 98.6387C99.2475 98.5891 99.2438 98.5074 99.1596 98.4542L96.752 97.1055C96.7003 97.0799 96.6432 97.0666 96.5852 97.0666C96.5273 97.0666 96.4701 97.0799 96.4185 97.1055L90.3281 100.509C90.2401 100.559 90.2438 100.641 90.3281 100.694L92.7393 102.042C92.7902 102.068 92.8465 102.082 92.9038 102.082C92.9611 102.083 93.0177 102.07 93.0691 102.046V102.046ZM110.204 92.2714C110.256 92.297 110.313 92.3103 110.371 92.3103C110.429 92.3103 110.486 92.297 110.538 92.2714L112.623 91.1037C112.711 91.0576 112.704 90.9724 112.623 90.9192L110.201 89.5882C110.149 89.5627 110.092 89.5494 110.034 89.5494C109.976 89.5494 109.919 89.5627 109.867 89.5882L107.786 90.7524C107.698 90.802 107.702 90.8837 107.786 90.9369L110.204 92.2714ZM107.097 90.3548L109.182 89.1872C109.27 89.1375 109.263 89.0558 109.182 89.0026L106.774 87.6539C106.723 87.6283 106.666 87.615 106.608 87.615C106.55 87.615 106.493 87.6283 106.441 87.6539L104.36 88.8216C104.272 88.8713 104.275 88.9529 104.36 89.0061L106.767 90.3548C106.818 90.3798 106.875 90.3928 106.932 90.3928C106.989 90.3928 107.046 90.3798 107.097 90.3548V90.3548ZM90.0239 103.75L92.109 102.582C92.197 102.532 92.1933 102.451 92.109 102.397L89.6978 101.049C89.6466 101.024 89.5901 101.011 89.5328 101.011C89.4756 101.011 89.4191 101.024 89.3679 101.049L87.2828 102.216C87.1949 102.266 87.1986 102.348 87.2828 102.401L89.6941 103.75C89.7452 103.775 89.8017 103.788 89.859 103.788C89.9163 103.788 89.9727 103.775 90.0239 103.75V103.75ZM103.476 96.0336C103.528 96.0586 103.584 96.0716 103.641 96.0716C103.699 96.0716 103.755 96.0586 103.806 96.0336L105.891 94.8695C105.979 94.8198 105.976 94.7346 105.891 94.6849L103.48 93.3362C103.429 93.3112 103.372 93.2982 103.315 93.2982C103.258 93.2982 103.201 93.3112 103.15 93.3362L101.069 94.5003C100.981 94.55 100.984 94.6352 101.069 94.6885L103.476 96.0336ZM74.8015 112.261L76.8829 111.097C76.9709 111.047 76.9635 110.962 76.8829 110.908L74.4753 109.563C74.4237 109.538 74.3666 109.524 74.3086 109.524C74.2506 109.524 74.1935 109.538 74.1419 109.563L72.0604 110.727C71.9725 110.777 71.9761 110.862 72.0604 110.916L74.468 112.261C74.5196 112.286 74.5768 112.3 74.6347 112.3C74.6927 112.3 74.7499 112.286 74.8015 112.261V112.261ZM77.8467 110.557L79.9281 109.393C80.0198 109.343 80.0124 109.262 79.9281 109.208L77.5205 107.86C77.4689 107.834 77.4118 107.821 77.3538 107.821C77.2958 107.821 77.2387 107.834 77.1871 107.86L75.1056 109.027C75.014 109.077 75.0213 109.159 75.1056 109.212L77.5132 110.557C77.5648 110.583 77.622 110.596 77.68 110.596C77.7379 110.596 77.7951 110.583 77.8467 110.557ZM71.7526 113.964L73.8377 112.8C73.9257 112.75 73.9183 112.665 73.8377 112.612L71.4301 111.267C71.3785 111.241 71.3213 111.228 71.2634 111.228C71.2054 111.228 71.1483 111.241 71.0966 111.267L69.0152 112.431C68.9272 112.481 68.9309 112.562 69.0152 112.616L71.4228 113.964C71.4739 113.989 71.5304 114.002 71.5877 114.002C71.645 114.002 71.7014 113.989 71.7526 113.964V113.964ZM83.9335 107.153L86.0149 105.989C86.1029 105.939 86.0992 105.854 86.0149 105.801L83.6073 104.456C83.5557 104.43 83.4986 104.417 83.4406 104.417C83.3826 104.417 83.3255 104.43 83.2738 104.456L81.1887 105.62C81.1008 105.67 81.1081 105.755 81.1887 105.805L83.5963 107.153C83.6489 107.18 83.7074 107.194 83.7667 107.194C83.8261 107.194 83.8846 107.18 83.9371 107.153H83.9335ZM80.8882 108.857L82.9697 107.689C83.0576 107.64 83.054 107.558 82.9697 107.505L80.5474 106.16C80.4958 106.134 80.4387 106.121 80.3807 106.121C80.3227 106.121 80.2656 106.134 80.214 106.16L78.1362 107.334C78.0482 107.384 78.0556 107.466 78.1362 107.519L80.5438 108.868C80.5982 108.894 80.6585 108.907 80.7192 108.905C80.78 108.903 80.8393 108.887 80.8919 108.857H80.8882ZM86.9787 105.45L89.0601 104.286C89.1481 104.236 89.1444 104.154 89.0601 104.101L86.6489 102.752C86.5977 102.727 86.5412 102.714 86.484 102.714C86.4267 102.714 86.3702 102.727 86.3191 102.752L84.212 103.909C84.124 103.959 84.1313 104.044 84.212 104.097L86.6196 105.443C86.6742 105.474 86.7364 105.491 86.8 105.493C86.8636 105.494 86.9264 105.479 86.9823 105.45H86.9787ZM100.904 80.2502C100.955 80.2757 101.013 80.2891 101.071 80.2891C101.129 80.2891 101.186 80.2757 101.237 80.2502L103.319 79.0861C103.407 79.0364 103.403 78.9547 103.319 78.9015L102.677 78.5466C102.626 78.521 102.569 78.5077 102.511 78.5077C102.453 78.5077 102.396 78.521 102.344 78.5466L100.263 79.7107C100.175 79.7604 100.178 79.842 100.263 79.8953L100.904 80.2502ZM85.9233 89.6131C85.9744 89.638 86.0309 89.651 86.0882 89.651C86.1455 89.651 86.202 89.638 86.2531 89.6131L88.3382 88.4489C88.4262 88.3992 88.4225 88.3176 88.3382 88.2643L85.927 86.9156C85.8758 86.8907 85.8193 86.8777 85.7621 86.8777C85.7048 86.8777 85.6483 86.8907 85.5972 86.9156L83.512 88.0798C83.4241 88.1295 83.4278 88.2147 83.512 88.2679L85.9233 89.6131ZM92.0137 86.2094C92.0649 86.2343 92.1214 86.2473 92.1786 86.2473C92.2359 86.2473 92.2924 86.2343 92.3435 86.2094L94.4287 85.0452C94.5166 84.9955 94.5093 84.9103 94.4287 84.8571L92.0211 83.5119C91.9694 83.4864 91.9123 83.4731 91.8543 83.4731C91.7964 83.4731 91.7392 83.4864 91.6876 83.5119L89.6061 84.6761C89.5182 84.7258 89.5219 84.8074 89.6061 84.8606L92.0137 86.2094ZM82.2111 91.7178C82.2628 91.7433 82.3199 91.7566 82.3779 91.7566C82.4358 91.7566 82.493 91.7433 82.5446 91.7178L84.6261 90.5536C84.714 90.5039 84.7103 90.4187 84.6261 90.3655L82.2185 89.0203C82.1668 88.9948 82.1097 88.9815 82.0517 88.9815C81.9938 88.9815 81.9366 88.9948 81.885 89.0203L79.8035 90.1845C79.7119 90.2342 79.7193 90.3194 79.8035 90.3726L82.2111 91.7178ZM88.9758 87.9272C89.027 87.9521 89.0835 87.9651 89.1408 87.9651C89.198 87.9651 89.2545 87.9521 89.3056 87.9272L91.3908 86.7595C91.4787 86.7098 91.475 86.6282 91.3908 86.5749L88.9795 85.2262C88.9284 85.2013 88.8719 85.1882 88.8146 85.1882C88.7573 85.1882 88.7008 85.2013 88.6497 85.2262L86.5536 86.3939C86.4657 86.4436 86.4693 86.5252 86.5536 86.5785L88.9758 87.9272ZM76.1207 95.1144C76.1723 95.1399 76.2295 95.1532 76.2874 95.1532C76.3454 95.1532 76.4026 95.1399 76.4542 95.1144L78.5393 93.9502C78.6272 93.9005 78.6199 93.8189 78.5393 93.7657L76.1317 92.4169C76.0801 92.3914 76.0229 92.3781 75.965 92.3781C75.907 92.3781 75.8498 92.3914 75.7982 92.4169L73.7168 93.5846C73.6288 93.6343 73.6325 93.716 73.7168 93.7692L76.1207 95.1144ZM79.1659 93.4107C79.2175 93.4363 79.2747 93.4496 79.3327 93.4496C79.3906 93.4496 79.4478 93.4363 79.4994 93.4107L81.5808 92.243C81.6725 92.1969 81.6651 92.1117 81.5808 92.0585L79.1732 90.7133C79.1216 90.6878 79.0645 90.6745 79.0065 90.6745C78.9485 90.6745 78.8914 90.6878 78.8398 90.7133L76.7583 91.8775C76.6667 91.9272 76.674 92.0088 76.7583 92.062L79.1659 93.4107ZM94.8391 83.6681C94.8907 83.6937 94.9478 83.707 95.0058 83.707C95.0638 83.707 95.1209 83.6937 95.1725 83.6681L97.254 82.504C97.3419 82.4543 97.3383 82.3691 97.254 82.3159L96.6127 81.9609C96.5611 81.9354 96.5039 81.9221 96.446 81.9221C96.388 81.9221 96.3309 81.9354 96.2792 81.9609L94.1978 83.1286C94.1098 83.1783 94.1135 83.2599 94.1978 83.3132L94.8391 83.6681ZM103.975 78.5608C104.026 78.5863 104.083 78.5996 104.141 78.5996C104.199 78.5996 104.257 78.5863 104.308 78.5608L106.39 77.3931C106.478 77.3434 106.474 77.2618 106.39 77.2085L105.748 76.8536C105.697 76.828 105.64 76.8147 105.582 76.8147C105.524 76.8147 105.467 76.828 105.415 76.8536L103.333 78.0177C103.242 78.0674 103.249 78.1526 103.333 78.2058L103.975 78.5608ZM109.035 81.4001C109.087 81.4251 109.143 81.4381 109.2 81.4381C109.258 81.4381 109.314 81.4251 109.365 81.4001L111.45 80.236C111.538 80.1863 111.535 80.1011 111.45 80.0479L109.039 78.7027C108.988 78.6778 108.931 78.6648 108.874 78.6648C108.817 78.6648 108.76 78.6778 108.709 78.7027L106.624 79.8669C106.536 79.9166 106.54 80.0018 106.624 80.055L109.035 81.4001ZM116.628 88.8784L118.71 87.7142C118.801 87.6645 118.794 87.5829 118.71 87.5297L116.302 86.181C116.251 86.1554 116.193 86.1421 116.135 86.1421C116.077 86.1421 116.02 86.1554 115.969 86.181L113.895 87.3309C113.803 87.3806 113.81 87.4658 113.895 87.519L116.302 88.8642C116.352 88.8908 116.407 88.9059 116.464 88.9084C116.52 88.9109 116.577 88.9006 116.628 88.8784V88.8784ZM97.866 81.9716C97.9176 81.9971 97.9747 82.0104 98.0327 82.0104C98.0907 82.0104 98.1478 81.9971 98.1994 81.9716L100.281 80.8074C100.369 80.7577 100.365 80.6726 100.281 80.6193L99.6396 80.2644C99.588 80.2389 99.5308 80.2255 99.4729 80.2255C99.4149 80.2255 99.3578 80.2389 99.3061 80.2644L97.2137 81.425C97.1257 81.4747 97.1294 81.5563 97.2137 81.6096L97.866 81.9716ZM73.0755 96.8215C73.1271 96.8471 73.1842 96.8604 73.2422 96.8604C73.3002 96.8604 73.3573 96.8471 73.409 96.8215L75.4941 95.6574C75.582 95.6077 75.5747 95.5261 75.4941 95.4728L73.0865 94.1241C73.0349 94.0986 72.9777 94.0853 72.9197 94.0853C72.8618 94.0853 72.8046 94.0986 72.753 94.1241L70.6532 95.267C70.5653 95.3167 70.569 95.4018 70.6532 95.4551L73.0755 96.8215Z" fill="#455A64"/>
<path d="M86.5792 114.518L107.137 103.022C107.485 102.851 107.87 102.761 108.26 102.761C108.651 102.761 109.036 102.851 109.384 103.022L121.172 109.613C121.792 109.968 121.792 110.522 121.172 110.866L100.611 122.365C100.263 122.535 99.8788 122.623 99.4894 122.623C99.0999 122.623 98.7158 122.535 98.368 122.365L86.5792 115.771C85.9599 115.427 85.9599 114.862 86.5792 114.518Z" fill="#263238"/>
<path d="M75.124 53.4536L78.3487 48.0161L66.2961 41.2371C64.277 40.1191 61.4919 40.2859 58.4174 42.0073C52.2097 45.4429 47.2003 53.8333 47.2003 60.7366C47.2003 64.1935 48.4536 66.6212 50.4984 67.7463L62.6499 74.5785L65.948 68.9921C70.6716 65.4535 74.3947 59.1749 75.124 53.4536Z" fill="#455A64"/>
<path d="M70.5103 48.8147C64.3393 52.2646 59.3372 60.6549 59.3372 67.5582C59.3372 74.4614 64.3393 77.2546 70.5103 73.8048C76.6814 70.355 81.6834 61.961 81.6834 55.0613C81.6834 48.1616 76.6814 45.3613 70.5103 48.8147Z" fill="#263238"/>
<path d="M81.863 56.9353L84.9046 51.7819L78.8874 48.4172C76.9745 47.3524 74.3324 47.5121 71.4191 49.1448C65.5559 52.4136 60.8323 60.3639 60.8323 66.8909C60.8323 70.1668 62.0233 72.4667 63.9435 73.5351L70.0559 76.953L73.1818 71.6575C77.6415 68.3283 81.1704 62.3656 81.863 56.9353Z" fill="#F5F5F5"/>
<path d="M61.1475 63.7392C60.9289 64.7813 60.816 65.8417 60.8103 66.9051C60.8103 70.181 62.0013 72.4809 63.9215 73.5493L70.0339 76.9672L73.1598 71.6717C73.4639 71.4481 73.7608 71.2068 74.0576 70.9619L61.1475 63.7392Z" fill="#EBEBEB"/>
<path d="M77.4876 52.5485C71.6243 55.8209 66.9008 63.7711 66.9008 70.3124C66.9008 76.8536 71.6427 79.5013 77.4876 76.2325C83.3325 72.9636 88.078 65.0098 88.078 58.4863C88.078 51.9629 83.3361 49.2797 77.4876 52.5485Z" fill="#E0E0E0"/>
<path d="M129.505 93.3468C128.219 94.2661 125.357 93.535 125.178 93.4924C125.317 93.5492 127.545 94.5571 128.109 96.7151C128.314 97.5278 127.659 98.4897 127.061 98.8836C125.086 100.193 122.169 98.8411 120.59 98.0105C121.225 98.6086 121.714 99.336 122.022 100.14C122.308 101.056 122.14 102.064 121.392 102.536C119.783 103.551 117.574 103.632 110.417 99.4764C110.689 99.8452 110.859 100.275 110.912 100.726C110.915 100.762 110.915 100.799 110.912 100.836C110.913 101.054 110.862 101.269 110.761 101.464C110.704 101.573 110.631 101.675 110.545 101.766C110.272 102.04 109.931 102.244 109.556 102.358C107.13 103.214 100.64 99.164 96.2389 96.4986C91.8378 93.8331 85.6118 89.5279 82.5373 86.7701C78.0299 82.7347 78.7262 80.8252 74.3727 77.4641C73.0659 76.4721 71.691 75.5673 70.2575 74.756C70.1292 74.6992 68.5461 73.748 67.2049 72.9317C67.0004 72.0753 66.9008 71.1985 66.9081 70.3195C66.9068 69.8166 66.9362 69.3141 66.996 68.8146C67.6337 62.607 72.0897 55.5795 77.4949 52.5591C78.3823 52.0517 79.3364 51.6625 80.3312 51.4021C81.7494 52.2717 83.7319 53.4855 83.8638 53.5707C85.0769 54.4003 86.3763 55.1045 87.7409 55.6718C88.4005 55.938 89.0418 56.1581 89.7051 56.3604C91.6729 56.9637 98.1958 58.4225 101.912 59.7534C105.627 61.0844 109.05 62.5928 110.479 63.4766C111.908 64.3603 115.793 69.0027 118.439 70.9406C121.084 72.8785 121.37 74.4188 119.076 74.8447C116.782 75.2706 113.448 75.1606 110.648 73.1411C107.848 71.1216 106.958 70.4188 105.998 70.4827C105.037 70.5466 107.148 72.339 108.416 73.4818C109.249 74.2792 110.021 75.1345 110.725 76.0408C111.355 76.8216 112.048 77.5538 112.795 78.2307C114.283 79.5758 116.801 81.7267 119.175 83.1428C122.862 85.3433 127.138 87.6503 128.703 89.0558C130.268 90.4613 130.836 92.3992 129.505 93.3468Z" fill="#FFA8A7"/>
<path d="M129.055 92.2572C128.161 92.7577 126.926 92.5731 124.903 91.8739C122.88 91.1747 117.999 88.7151 116.218 87.7178C115.203 87.1534 111.252 84.9174 108.039 83.1038C107.996 83.0774 107.944 83.0686 107.895 83.0792C107.845 83.0899 107.802 83.1191 107.775 83.1606C107.748 83.202 107.739 83.2522 107.75 83.3001C107.761 83.348 107.791 83.3897 107.833 83.4161C110.651 85.2865 114.107 87.558 115.643 88.4737C119.08 90.5252 121.927 91.881 125.17 93.4959C125.17 93.4959 128.175 94.3016 129.505 93.3539C130.363 92.7399 130.422 91.7142 129.938 90.6849C129.933 90.9966 129.85 91.3025 129.696 91.5764C129.542 91.8502 129.322 92.0839 129.055 92.2572V92.2572Z" fill="#F28F8F"/>
<path d="M126.625 98.1525C124.983 98.6068 122.228 97.2368 121.128 96.6902C120.029 96.1436 112.403 92.1791 111.128 91.4373L103.799 87.1783C103.756 87.1519 103.709 87.1339 103.66 87.1253C103.61 87.1167 103.559 87.1176 103.51 87.128C103.461 87.1383 103.414 87.158 103.373 87.1858C103.332 87.2136 103.296 87.2491 103.269 87.2901C103.242 87.3311 103.224 87.3769 103.215 87.4249C103.206 87.4728 103.207 87.522 103.217 87.5697C103.228 87.6173 103.248 87.6624 103.277 87.7024C103.306 87.7425 103.342 87.7766 103.385 87.8029C107.148 90.2874 111.685 92.7257 113.873 93.9005C116.199 95.1192 118.435 96.4937 120.564 98.0141C122.143 98.8446 125.06 100.2 127.036 98.8872C127.637 98.4932 128.289 97.5314 128.084 96.7186C128.095 96.715 128.065 97.7514 126.625 98.1525Z" fill="#F28F8F"/>
<path d="M121.378 102.529C122.052 102.103 122.253 101.237 122.074 100.399C122.063 100.74 121.925 101.066 121.686 101.317C121.447 101.568 121.123 101.727 120.773 101.766C119.479 101.964 118.31 101.673 116.742 101.137C115.173 100.601 110.307 97.6272 108.746 96.7967C107.771 96.2785 102.098 92.8358 97.9686 90.3194C97.7157 90.1632 97.6681 90.5039 97.9173 90.6743C100.981 92.637 102.652 93.8189 104.041 94.763C106.628 96.5198 109.127 98.0638 110.391 99.4764C117.559 103.625 119.758 103.544 121.378 102.529Z" fill="#F28F8F"/>
<path d="M110.904 100.829C110.906 101.047 110.855 101.262 110.754 101.457C110.696 101.566 110.624 101.668 110.538 101.759C110.264 102.033 109.924 102.237 109.548 102.351C107.123 103.207 100.633 99.1569 96.2316 96.4915C91.8305 93.826 85.6045 89.5208 82.53 86.763C78.0226 82.7276 78.7188 80.8181 74.3654 77.457C73.0586 76.465 71.6836 75.5602 70.2501 74.7489C70.1219 74.6921 68.5388 73.7409 67.1976 72.9246C66.9931 72.0682 66.8935 71.1914 66.9008 70.3124C66.8995 69.8095 66.9288 69.307 66.9887 68.8075C71.1883 71.3274 76.3039 74.1313 77.9566 75.693C78.0153 75.7498 78.0702 75.7995 78.1215 75.8527C80.2579 77.9148 81.0531 80.0337 82.519 83.3558C84.0434 86.763 90.1338 90.3761 96.2243 94.5323C102.315 98.6884 106.452 101.024 108.409 101.57C108.713 101.661 109.029 101.709 109.347 101.712C109.683 101.744 110.02 101.663 110.301 101.481C110.582 101.3 110.79 101.031 110.89 100.719C110.904 100.747 110.904 100.79 110.904 100.829Z" fill="#F28F8F"/>
<path d="M81.229 51.9664L80.3239 51.4127C79.3291 51.6732 78.375 52.0624 77.4876 52.5698C72.0824 55.5724 67.6263 62.6141 66.9887 68.8075C66.9288 69.307 66.8995 69.8095 66.9008 70.3124C66.8935 71.1914 66.9931 72.0682 67.1976 72.9246C68.5388 73.7409 70.1292 74.6992 70.2501 74.7489C70.7668 75.0506 71.2432 75.3381 71.6903 75.6149C71.7709 74.3762 71.8405 73.0737 71.8882 71.7108C72.4269 56.3462 81.229 51.9664 81.229 51.9664Z" fill="#F28F8F"/>
<path opacity="0.5" d="M108.416 73.4783C107.145 72.3319 105.041 70.5466 106.001 70.4792C103.85 70.5821 101.465 73.0737 95.517 73.5386C89.5695 74.0036 84.0507 71.4339 84.0507 71.4339C84.0507 71.4339 89.3826 74.4153 90.1412 79.1003C90.5956 81.8864 89.7161 84.6796 92.6843 84.779C95.7589 84.8819 98.5806 83.3948 102.146 78.3478C105.037 74.2555 108.9 74.2236 111.157 76.5555C111.047 76.4099 110.879 76.2289 110.725 76.0373C110.021 75.1309 109.249 74.2756 108.416 73.4783Z" fill="#F28F8F"/>
<path d="M109.941 79.9521C108.398 82.7489 101.596 89.7621 94.894 91.125C98.3849 91.1102 101.759 89.9037 104.422 87.7178C109.002 84.0301 109.941 79.9521 109.941 79.9521Z" fill="#F28F8F"/>
<path d="M117.438 33.3294L118.739 30.6959L112.542 27.2319C111.869 26.8506 111.147 26.557 110.395 26.3588C110.135 26.2913 109.867 26.2345 109.6 26.1884C108.269 25.9771 106.908 26.0133 105.591 26.2949C105.101 26.3934 104.618 26.519 104.143 26.6711C103.635 26.8313 103.136 27.0173 102.648 27.2283C101.99 27.508 101.35 27.8256 100.732 28.1795C100.042 28.5693 99.3747 28.9934 98.7308 29.4501C98.2422 29.8027 97.7536 30.1754 97.265 30.5681C90.1925 36.3498 84.6297 46.6639 83.2189 56.5804C83.1212 57.2548 83.0442 57.9268 82.988 58.5964C82.9037 59.5547 82.8634 60.5059 82.8671 61.4358C82.8671 62.2059 82.9001 62.9513 82.9624 63.6682C83.0137 64.2893 83.087 64.8927 83.1786 65.4748C83.2702 66.0568 83.3838 66.6105 83.512 67.15C83.8556 68.6378 84.4131 70.0715 85.1684 71.4091C85.3186 71.6753 85.4799 71.9308 85.6448 72.1757C86.3187 73.1924 87.1721 74.0863 88.166 74.8163C88.4641 75.0292 88.7748 75.2247 89.0968 75.402V75.402L94.982 78.6885L96.173 76.2786C96.4918 76.2112 96.8106 76.1331 97.1331 76.0373C98.4434 75.6454 99.7016 75.1058 100.882 74.4295C101.641 73.996 102.375 73.5221 103.081 73.0098C104.029 72.3208 104.932 71.5752 105.785 70.7773C111.689 65.276 116.335 56.6691 118.035 48.1013C118.289 46.8444 118.477 45.5756 118.596 44.3001C118.691 43.2353 118.743 42.2061 118.739 41.1768C118.743 39.693 118.621 38.2115 118.373 36.7473C118.169 35.5829 117.856 34.4388 117.438 33.3294Z" fill="#1E88E5"/>
<path opacity="0.25" d="M84.5161 50.7135L96.5724 57.4571L98.0968 53.198L86.0259 46.4545C85.4542 47.8458 84.9449 49.2726 84.5161 50.7135Z" fill="white"/>
<path opacity="0.25" d="M112.542 27.2319C111.869 26.8506 111.147 26.557 110.395 26.3588C110.135 26.2913 109.867 26.2345 109.6 26.1884C108.269 25.9771 106.908 26.0133 105.591 26.2949C105.415 26.3304 105.224 26.373 105.059 26.4191L117.449 33.3472C117.448 33.3378 117.448 33.3282 117.449 33.3188L118.75 30.6853L112.542 27.2319Z" fill="white"/>
<path opacity="0.25" d="M111.802 43.86L113.327 42.0854L95.495 32.1475C94.9454 32.6776 94.4067 33.2324 93.879 33.8121L111.802 43.86Z" fill="white"/>
<path opacity="0.25" d="M90.1998 38.561L105.712 47.2353L107.364 43.0508L92.8859 34.9514C91.9235 36.1065 91.0268 37.3115 90.1998 38.561V38.561Z" fill="white"/>
<path opacity="0.4" d="M112.542 27.2319C111.869 26.8506 111.147 26.557 110.395 26.3588C110.135 26.2913 109.867 26.2345 109.6 26.1884C108.269 25.9771 106.908 26.0133 105.591 26.2949C105.101 26.3934 104.618 26.519 104.143 26.6711C103.635 26.8313 103.136 27.0173 102.648 27.2283C101.99 27.508 101.35 27.8256 100.732 28.1795C100.042 28.5693 99.3747 28.9934 98.7308 29.4501C98.2422 29.8027 97.7536 30.1754 97.265 30.5681C90.6688 35.9523 85.4029 45.2619 83.567 54.5183L108.178 68.2929C112.942 62.8661 116.573 55.4731 118.035 48.1049C118.289 46.8479 118.477 45.5792 118.596 44.3036C118.691 43.2389 118.743 42.2096 118.739 41.1803C118.743 39.6966 118.621 38.2151 118.373 36.7509C118.173 35.5856 117.864 34.4403 117.449 33.3294L118.75 30.6959L112.542 27.2319Z" fill="white"/>
<path opacity="0.1" d="M94.982 78.6885L96.173 76.2786C96.4918 76.2112 96.8106 76.1331 97.1331 76.0373C98.4434 75.6454 99.7016 75.1058 100.882 74.4295C101.641 73.996 102.375 73.522 103.081 73.0098C104.029 72.3208 104.932 71.5752 105.785 70.7773C106.626 69.9893 107.425 69.1601 108.178 68.2929L83.567 54.529C83.4302 55.2104 83.308 55.8919 83.2006 56.5733C83.0931 57.2548 83.0161 57.9268 82.9697 58.5893C82.8854 59.5476 82.8451 60.4988 82.8488 61.4287C82.8488 62.1988 82.8817 62.9442 82.944 63.6611C82.9953 64.2822 83.0686 64.8856 83.1602 65.4677C83.2519 66.0497 83.3655 66.6034 83.4937 67.1429C83.8373 68.6307 84.3948 70.0644 85.1501 71.402C85.3003 71.6682 85.4616 71.9237 85.6265 72.1686C86.3003 73.1853 87.1538 74.0792 88.1477 74.8092C88.4457 75.022 88.7565 75.2176 89.0784 75.3949V75.3949L94.982 78.6885Z" fill="black"/>
<path opacity="0.1" d="M85.1684 71.402C85.3186 71.6682 85.4799 71.9237 85.6448 72.1686C86.3187 73.1853 87.1721 74.0792 88.166 74.8092C88.464 75.022 88.7748 75.2176 89.0968 75.3949V75.3949L94.982 78.6814L96.173 76.2715H96.2206L96.3086 75.2848L83.8455 68.2929C84.1686 69.3727 84.6121 70.4152 85.1684 71.402V71.402Z" fill="black"/>
<path d="M124.452 40.1546C124.2 38.6402 123.752 37.1627 123.118 35.7571C122.361 34.0027 121.159 32.462 119.622 31.278C118.688 30.5807 117.621 30.0692 116.482 29.7731C116.222 29.7057 115.954 29.6524 115.687 29.6063C114.356 29.392 112.995 29.427 111.678 29.7092C111.188 29.8094 110.705 29.9362 110.23 30.089C109.723 30.2473 109.225 30.4322 108.739 30.6427C108.081 30.9251 107.44 31.2426 106.818 31.5939C106.129 31.9845 105.461 32.4098 104.818 32.868C104.327 33.223 103.835 33.5779 103.352 33.9825C96.2792 39.7642 90.7165 50.0676 89.3057 59.977C89.2055 60.6561 89.1285 61.3281 89.0748 61.993C88.9917 62.9394 88.9514 63.8859 88.9539 64.8324C88.9539 65.599 88.9905 66.3443 89.0491 67.0613C89.1004 67.6859 89.1737 68.2858 89.2653 68.8678C89.357 69.4499 89.4706 70.0071 89.6025 70.5466C89.9458 72.034 90.5021 73.4675 91.2552 74.8057C91.4091 75.0683 91.5667 75.3239 91.7316 75.5688C92.4046 76.5872 93.2596 77.4814 94.2564 78.2094C95.6981 79.2604 97.4339 79.8653 99.2365 79.945C100.585 80.004 101.933 79.8334 103.22 79.441C104.531 79.0507 105.789 78.511 106.969 77.8332C107.729 77.4005 108.463 76.9266 109.167 76.4135C110.117 75.7254 111.02 74.9797 111.872 74.181C117.775 68.6797 122.422 60.0729 124.126 51.5086C124.37 50.2332 124.556 48.965 124.683 47.7038C124.782 46.639 124.83 45.6098 124.826 44.5805C124.829 43.0977 124.704 41.6172 124.452 40.1546V40.1546Z" fill="#1E88E5"/>
<path opacity="0.05" d="M89.6611 57.922C89.5255 58.607 89.4046 59.292 89.2947 59.977C89.1847 60.662 89.1188 61.3257 89.0638 61.993C88.9807 62.9394 88.9404 63.8859 88.9429 64.8324C88.9429 65.599 88.9795 66.3443 89.0381 67.0613C89.0894 67.6859 89.1627 68.2858 89.2544 68.8678C89.346 69.4499 89.4596 70.0071 89.5915 70.5466C89.9348 72.034 90.4911 73.4675 91.2442 74.8057C91.3981 75.0683 91.5557 75.3239 91.7206 75.5688C92.3936 76.5872 93.2486 77.4814 94.2454 78.2094C95.6902 79.2624 97.4301 79.8675 99.2365 79.945C100.585 80.004 101.933 79.8334 103.22 79.441C104.531 79.0507 105.789 78.511 106.969 77.8332C107.632 77.457 108.281 77.0381 108.926 76.5838L89.6611 57.922Z" fill="black"/>
<path opacity="0.05" d="M89.9396 71.7569C90.2649 72.8173 90.7072 73.8406 91.2588 74.8092C91.4127 75.0719 91.5703 75.3274 91.7352 75.5723C92.4083 76.5907 93.2633 77.4849 94.2601 78.2129C95.4427 79.0732 96.8282 79.6343 98.2911 79.8456L89.9396 71.7569Z" fill="black"/>
<path opacity="0.25" d="M92.1127 49.8582C91.5373 51.2566 91.0353 52.6976 90.6066 54.1173L111.59 74.4401L111.875 74.181C112.78 73.3289 113.637 72.4296 114.441 71.4872L92.1127 49.8582Z" fill="white"/>
<path opacity="0.25" d="M98.9727 38.3587C98.0165 39.5129 97.1259 40.7167 96.3049 41.9647L119.391 64.3248C120.124 62.969 120.824 61.5493 121.44 60.1296L98.9727 38.3587Z" fill="white"/>
<path opacity="0.25" d="M101.593 35.5477C101.039 36.0801 100.493 36.6409 99.9657 37.2229L122.048 58.6106C122.356 57.812 122.645 57.0063 122.909 56.19L101.593 35.5477Z" fill="white"/>
<path opacity="0.25" d="M124.778 43.0401C124.756 42.6249 124.72 42.2202 124.679 41.8227C124.679 41.6914 124.654 41.5565 124.639 41.4288C124.624 41.301 124.606 41.159 124.588 41.0242C124.547 40.7296 124.503 40.4385 124.452 40.1546C124.2 38.6402 123.752 37.1627 123.118 35.7571C122.361 34.0027 121.159 32.462 119.622 31.278C118.688 30.5807 117.621 30.0692 116.482 29.7731C116.222 29.7057 115.958 29.6524 115.687 29.6063C114.356 29.392 112.995 29.427 111.678 29.7092C111.502 29.7447 111.311 29.7909 111.143 29.8334L124.778 43.0401Z" fill="white"/>
<path d="M120.26 47.2424C120.26 56.3852 114.763 66.9442 107.8 71.4339C107.507 71.622 107.207 71.8066 106.903 71.9734C99.5223 76.1011 93.5418 71.7214 93.5418 62.1882C93.5418 52.655 99.5223 41.5814 106.903 37.4536C107.207 37.2868 107.507 37.1342 107.8 36.9922C114.756 33.695 120.26 38.0996 120.26 47.2424Z" fill="#1E88E5"/>
<path opacity="0.4" d="M120.26 47.2424C120.26 56.3852 114.763 66.9442 107.8 71.4339C107.507 71.622 107.207 71.8066 106.903 71.9734C99.5223 76.1011 93.5418 71.7214 93.5418 62.1882C93.5418 52.655 99.5223 41.5814 106.903 37.4536C107.207 37.2868 107.507 37.1342 107.8 36.9922C114.756 33.695 120.26 38.0996 120.26 47.2424Z" fill="black"/>
<path d="M119.666 47.576C119.666 47.8671 119.666 48.1652 119.644 48.4633C119.307 56.9815 114.18 66.5431 107.749 70.6886L107.577 70.7986C107.35 70.9406 107.123 71.079 106.892 71.2068C105.663 71.9277 104.302 72.4099 102.883 72.6265C99.8851 73.024 97.3859 71.7498 95.8248 69.1482C94.916 67.6185 94.3334 65.6309 94.1721 63.2494C94.1391 62.8022 94.1245 62.3408 94.1245 61.8652C94.1245 61.3896 94.1245 60.9886 94.1648 60.5449C94.2185 59.6029 94.3262 58.6644 94.4873 57.7339C95.616 51.1501 99.2512 44.4314 103.854 40.3995C104.496 39.836 105.176 39.3154 105.891 38.8414C106.221 38.6249 106.555 38.419 106.892 38.2309C107.229 38.0428 107.471 37.9221 107.749 37.7873L107.991 37.6808C109.904 36.8183 111.692 36.5699 113.272 36.8645C115.958 37.3649 118.035 39.4412 119.021 42.7562C119.468 44.3257 119.685 45.9481 119.666 47.576V47.576Z" fill="#1E88E5"/>
<path opacity="0.7" d="M119.666 47.576C119.666 47.8671 119.666 48.1652 119.644 48.4633C119.307 56.9815 114.18 66.5431 107.749 70.6886L107.577 70.7986C107.35 70.9406 107.123 71.079 106.892 71.2068C105.663 71.9277 104.302 72.4099 102.883 72.6265C99.8851 73.024 97.3859 71.7498 95.8248 69.1482C94.916 67.6185 94.3334 65.6309 94.1721 63.2494C94.1391 62.8022 94.1245 62.3408 94.1245 61.8652C94.1245 61.3896 94.1245 60.9886 94.1648 60.5449C94.2185 59.6029 94.3262 58.6644 94.4873 57.7339C95.616 51.1501 99.2512 44.4314 103.854 40.3995C104.496 39.836 105.176 39.3154 105.891 38.8414C106.221 38.6249 106.555 38.419 106.892 38.2309C107.229 38.0428 107.471 37.9221 107.749 37.7873L107.991 37.6808C109.904 36.8183 111.692 36.5699 113.272 36.8645C115.958 37.3649 118.035 39.4412 119.021 42.7562C119.468 44.3257 119.685 45.9481 119.666 47.576V47.576Z" fill="black"/>
<path d="M117.526 47.2708C117.526 46.9727 117.526 46.6745 117.526 46.3799C117.547 44.751 117.331 43.1273 116.885 41.5565C116.306 39.6222 115.357 38.1138 114.136 37.0881C113.848 36.9913 113.553 36.9142 113.253 36.8574C111.674 36.5628 109.886 36.8112 107.973 37.6737L107.731 37.7802C107.452 37.915 107.163 38.0641 106.873 38.2238C106.584 38.3835 106.203 38.6178 105.873 38.8343C105.158 39.3083 104.477 39.8289 103.835 40.3924C99.2365 44.4243 95.616 51.143 94.4726 57.7268C94.3115 58.6573 94.2039 59.5957 94.1501 60.5378C94.1208 60.9815 94.1098 61.418 94.1098 61.8581C94.1098 62.2982 94.1098 62.7951 94.1575 63.2423C94.3187 65.6238 94.8904 67.6114 95.8102 69.1411C96.2517 69.8945 96.8203 70.5711 97.4922 71.1429C98.5385 71.4852 99.6537 71.5826 100.746 71.4268C102.166 71.2087 103.528 70.7266 104.759 70.0071C104.99 69.8794 105.217 69.7409 105.441 69.599L105.616 69.4889C112.062 65.347 117.193 55.7925 117.526 47.2708Z" fill="#1E88E5"/>
<path opacity="0.6" d="M117.526 47.2708C117.526 46.9727 117.526 46.6745 117.526 46.3799C117.547 44.751 117.331 43.1273 116.885 41.5565C116.306 39.6222 115.357 38.1138 114.136 37.0881C113.848 36.9913 113.553 36.9142 113.253 36.8574C111.674 36.5628 109.886 36.8112 107.973 37.6737L107.731 37.7802C107.452 37.915 107.163 38.0641 106.873 38.2238C106.584 38.3835 106.203 38.6178 105.873 38.8343C105.158 39.3083 104.477 39.8289 103.835 40.3924C99.2365 44.4243 95.616 51.143 94.4726 57.7268C94.3115 58.6573 94.2039 59.5957 94.1501 60.5378C94.1208 60.9815 94.1098 61.418 94.1098 61.8581C94.1098 62.2982 94.1098 62.7951 94.1575 63.2423C94.3187 65.6238 94.8904 67.6114 95.8102 69.1411C96.2517 69.8945 96.8203 70.5711 97.4922 71.1429C98.5385 71.4852 99.6537 71.5826 100.746 71.4268C102.166 71.2087 103.528 70.7266 104.759 70.0071C104.99 69.8794 105.217 69.7409 105.441 69.599L105.616 69.4889C112.062 65.347 117.193 55.7925 117.526 47.2708Z" fill="black"/>
<path d="M115.687 29.6063C114.544 29.4341 113.38 29.4485 112.242 29.6489C111.678 29.7569 111.12 29.8931 110.571 30.0571C110.432 30.0916 110.295 30.133 110.16 30.1813L109.761 30.3339L108.955 30.6427C107.901 31.0888 106.891 31.6245 105.935 32.2434C105.455 32.5593 104.986 32.8645 104.543 33.223C104.099 33.5814 103.619 33.9115 103.209 34.2877C102.798 34.6639 102.34 35.0295 101.937 35.4235C101.534 35.8174 101.124 36.2079 100.739 36.6231L99.603 37.8689L98.5036 39.1892L97.4849 40.5379C97.1514 40.9922 96.8436 41.4643 96.5211 41.9257C95.9055 42.8662 95.3045 43.8174 94.7658 44.8005L94.3517 45.5352L93.9852 46.2841C93.7287 46.7846 93.4649 47.2779 93.2523 47.7925C92.7723 48.8041 92.3435 49.8404 91.9221 50.8768L91.3468 52.4527C91.1636 52.9815 91.006 53.5174 90.8338 54.0498C90.6615 54.5822 90.5333 55.1146 90.3793 55.6612C90.2254 56.2077 90.1082 56.7259 89.9873 57.2867L89.8077 58.1066L89.6648 58.93C89.5732 59.4837 89.4669 60.0196 89.4156 60.5804C89.3643 61.1412 89.28 61.6949 89.2287 62.245C89.1774 62.7951 89.1444 63.3559 89.1261 63.9096C89.1261 64.19 89.1261 64.4668 89.1078 64.7472C89.0894 65.0276 89.1261 65.3009 89.1334 65.5777C89.1591 66.1349 89.1627 66.7064 89.2067 67.2458L89.3973 68.9069L89.7161 70.5537V70.575V70.5537C90.049 72.0257 90.5852 73.4475 91.3101 74.7808C91.5044 75.1003 91.6949 75.4375 91.9075 75.7498C92.12 76.0621 92.3545 76.3674 92.6001 76.6584C93.0933 77.2438 93.6553 77.7714 94.2747 78.2307C93.6433 77.7835 93.0677 77.2665 92.5597 76.6903C92.3069 76.4028 92.065 76.1047 91.8268 75.7924C91.5886 75.48 91.4128 75.1535 91.2002 74.8305C90.4353 73.5035 89.8655 72.0795 89.5072 70.5999V70.575V70.5928L89.1664 68.9459L88.9502 67.2742C88.8952 66.6993 88.8879 66.1527 88.8549 65.5919C88.8549 65.308 88.8256 65.0382 88.8183 64.7472C88.8109 64.4561 88.8183 64.1829 88.8183 63.9025C88.8183 63.3417 88.8586 62.7809 88.8989 62.2201C88.9392 61.6594 89.0198 61.1057 89.0784 60.5449C89.1371 59.9841 89.2324 59.4269 89.324 58.8768L89.4632 58.0462L89.6391 57.2228C89.7564 56.6727 89.8736 56.1226 90.0276 55.5795C90.1815 55.0365 90.2987 54.4864 90.4783 53.954C90.6579 53.4216 90.8044 52.8892 90.9877 52.3426L91.563 50.7526L92.2006 49.1874C92.4058 48.6621 92.666 48.1581 92.8969 47.6435C93.1278 47.1288 93.3953 46.6284 93.6518 46.1279L94.0402 45.372L94.4726 44.6195C95.0223 43.6293 95.6306 42.671 96.2572 41.7269C96.5797 41.262 96.8949 40.7899 97.232 40.3321L98.2654 38.9763L99.3648 37.6701C99.7312 37.2442 100.138 36.8325 100.526 36.4173C100.915 36.002 101.347 35.6187 101.754 35.2176C102.161 34.8166 102.615 34.4687 103.044 34.0925C103.473 33.7163 103.949 33.3827 104.403 33.0455C104.859 32.6963 105.334 32.3705 105.825 32.0695C106.798 31.4519 107.83 30.9277 108.907 30.5043L109.717 30.2097L110.124 30.0641C110.262 30.019 110.403 29.9811 110.545 29.9506C111.102 29.7951 111.667 29.6695 112.238 29.5744C113.381 29.3976 114.547 29.4084 115.687 29.6063V29.6063Z" fill="#F5F5F5"/>
<path d="M103.927 41.4714L106.133 42.71L109.303 40.9354L107.097 39.7003L103.927 41.4714Z" fill="#1E88E5"/>
<path opacity="0.2" d="M103.927 41.4714L106.133 42.71L109.303 40.9354L107.097 39.7003L103.927 41.4714Z" fill="black"/>
<path d="M105.03 43.3241L102.824 42.0889L99.6506 43.86L101.86 45.0987L105.03 43.3241Z" fill="#1E88E5"/>
<path opacity="0.2" d="M105.03 43.3241L102.824 42.0889L99.6506 43.86L101.86 45.0987L105.03 43.3241Z" fill="black"/>
<path d="M99.6506 46.0641L101.86 47.2992L99.6506 48.5379L97.4409 47.2992L99.6506 46.0641Z" fill="#1E88E5"/>
<path opacity="0.2" d="M99.6506 46.0641L101.86 47.2992L99.6506 48.5379L97.4409 47.2992L99.6506 46.0641Z" fill="black"/>
<path d="M97.4409 51.3914L99.6506 52.6301V48.5379L97.4409 47.2992V51.3914Z" fill="#1E88E5"/>
<path opacity="0.35" d="M97.4409 51.3914L99.6506 52.6301V48.5379L97.4409 47.2992V51.3914Z" fill="black"/>
<path d="M99.6506 43.86V46.0641L101.86 47.2992V45.0987L99.6506 43.86Z" fill="#1E88E5"/>
<path opacity="0.35" d="M99.6506 43.86V46.0641L101.86 47.2992V45.0987L99.6506 43.86Z" fill="black"/>
<path d="M103.927 41.4714V42.7065L105.03 43.3241V45.5281L106.133 44.9106V42.71L103.927 41.4714Z" fill="#1E88E5"/>
<path opacity="0.35" d="M103.927 41.4714V42.7065L105.03 43.3241V45.5281L106.133 44.9106V42.71L103.927 41.4714Z" fill="black"/>
<path d="M97.4409 64.0657L99.6506 65.3044L101.153 64.4632L98.947 63.2281L97.4409 64.0657Z" fill="#1E88E5"/>
<path opacity="0.2" d="M97.4409 64.0657L99.6506 65.3044L101.153 64.4632L98.947 63.2281L97.4409 64.0657Z" fill="black"/>
<path d="M98.947 63.2281L101.153 64.4632V51.789L99.6506 52.6301L98.947 52.2362V63.2281Z" fill="#1E88E5"/>
<path opacity="0.45" d="M98.947 63.2281L101.153 64.4632V51.789L99.6506 52.6301L98.947 52.2362V63.2281Z" fill="black"/>
<path d="M97.4409 64.0657L99.6506 65.3044V69.4002L97.4409 68.1615V64.0657Z" fill="#1E88E5"/>
<path opacity="0.35" d="M97.4409 64.0657L99.6506 65.3044V69.4002L97.4409 68.1615V64.0657Z" fill="black"/>
<path d="M101.86 68.1615V69.961L100.252 69.063L101.86 68.1615Z" fill="#1E88E5"/>
<path opacity="0.45" d="M101.86 68.1615V69.961L100.252 69.063L101.86 68.1615Z" fill="black"/>
<path d="M106.133 65.7729V67.5724L105.03 66.9548V66.3905L106.133 65.7729Z" fill="#1E88E5"/>
<path opacity="0.45" d="M106.133 65.7729V67.5724L105.03 66.9548V66.3905L106.133 65.7729Z" fill="black"/>
<path d="M110.329 42.8414C110.46 42.8193 110.592 42.8074 110.725 42.8059C111.14 42.7918 111.552 42.8836 111.919 43.0721L109.776 41.8689C109.626 41.7856 109.467 41.7178 109.303 41.6666V43.1608C109.498 43.0705 109.7 42.9957 109.908 42.9372C110.008 42.9085 110.109 42.8848 110.212 42.8662L110.329 42.8414Z" fill="#1E88E5"/>
<path opacity="0.2" d="M110.329 42.8414C110.46 42.8193 110.592 42.8074 110.725 42.8059C111.14 42.7918 111.552 42.8836 111.919 43.0721L109.776 41.8689C109.626 41.7856 109.467 41.7178 109.303 41.6666V43.1608C109.498 43.0705 109.7 42.9957 109.908 42.9372C110.008 42.9085 110.109 42.8848 110.212 42.8662L110.329 42.8414Z" fill="black"/>
<path d="M110.963 56.5414V56.8963C110.963 58.0498 110.23 59.3808 109.343 59.8918L104.895 62.3763L104.319 62.6957V60.2113L107.141 58.6354C108.02 58.1385 108.746 56.8182 108.761 55.6754L108.955 55.5653L109.343 55.3453C110.23 54.8555 110.963 55.3914 110.963 56.5414Z" fill="#1E88E5"/>
<path opacity="0.45" d="M110.963 56.5414V56.8963C110.963 58.0498 110.23 59.3808 109.343 59.8918L104.895 62.3763L104.319 62.6957V60.2113L107.141 58.6354C108.02 58.1385 108.746 56.8182 108.761 55.6754L108.955 55.5653L109.343 55.3453C110.23 54.8555 110.963 55.3914 110.963 56.5414Z" fill="black"/>
<path d="M110.406 48.4846V48.8041C110.406 49.8333 109.757 51.033 108.94 51.4802L104.305 54.0711V51.5866L106.73 50.2308C107.131 49.9559 107.467 49.6006 107.713 49.1891C107.96 48.7775 108.112 48.3194 108.16 47.8458L108.94 47.4092C109.757 46.9975 110.406 47.4518 110.406 48.4846Z" fill="#1E88E5"/>
<path opacity="0.45" d="M110.406 48.4846V48.8041C110.406 49.8333 109.757 51.033 108.94 51.4802L104.305 54.0711V51.5866L106.73 50.2308C107.131 49.9559 107.467 49.6006 107.713 49.1891C107.96 48.7775 108.112 48.3194 108.16 47.8458L108.94 47.4092C109.757 46.9975 110.406 47.4518 110.406 48.4846Z" fill="black"/>
<path d="M112.645 51.1288C113.233 49.8371 113.55 48.4446 113.576 47.033V46.71C113.576 43.5973 111.703 42.0499 109.303 43.1608V40.9354L106.133 42.71V44.9106L105.034 45.5281V43.3241L101.864 45.0987V47.2992L99.6653 48.5379V52.6301L101.168 51.789V64.4632L99.6653 65.3044V69.3967L101.864 68.1615V69.961L105.034 68.1864V66.3869L106.133 65.7694V67.583L109.303 65.8084V63.9983L109.351 63.9735C111.989 62.497 114.14 58.5218 114.14 55.1004V54.7455C114.14 53.088 113.594 51.7641 112.645 51.1288ZM110.406 48.4846V48.8041C110.406 49.8333 109.757 51.0365 108.94 51.4802L104.305 54.0747V50.0179L104.88 49.6949L108.94 47.4234C109.757 46.9975 110.406 47.4554 110.406 48.4846V48.4846ZM104.323 58.1669L108.958 55.576L109.351 55.3559C110.241 54.8555 110.97 55.3879 110.97 56.5414V56.8963C110.97 58.0498 110.237 59.3808 109.351 59.8954L104.898 62.3798L104.323 62.7028V58.1669Z" fill="#1E88E5"/>
<path opacity="0.3" d="M109.303 43.1608V42.0002L108.607 41.3258L106.478 42.5184L113.316 49.127C113.483 48.4358 113.57 47.7287 113.576 47.0188V46.6958C113.576 46.49 113.576 46.2912 113.55 46.0995L110.197 42.852C109.887 42.9188 109.587 43.0225 109.303 43.1608V43.1608Z" fill="white"/>
<path opacity="0.3" d="M110.402 48.4172C110.402 48.4385 110.402 48.4633 110.402 48.4882V48.8076C110.402 49.8369 109.754 51.0401 108.936 51.4837L107.797 52.1226L113.704 57.8439C113.969 56.9565 114.108 56.0383 114.118 55.1146V54.7597C114.118 53.0773 113.572 51.7535 112.623 51.1182C112.678 50.9904 112.729 50.8591 112.784 50.7277L110.402 48.4172Z" fill="white"/>
<path opacity="0.3" d="M105.646 61.9539L104.898 62.3692L104.323 62.6922V60.6727L101.153 57.6026V63.3204L105.03 67.0755V66.3905L106.133 65.7729V67.5724L109.303 65.7977V65.4961L105.646 61.9539Z" fill="white"/>
<path opacity="0.25" d="M105.162 49.5458L108.958 47.4163C109.052 47.3659 109.15 47.3243 109.252 47.2921L106.133 44.2717V44.9035L105.034 45.521V43.317L101.864 45.0916V46.3409L105.162 49.5458Z" fill="white"/>
<path d="M101.153 51.789V64.4632C101.19 63.9344 101.208 63.3985 101.234 62.8803C101.259 62.3621 101.267 61.8155 101.285 61.2938C101.318 60.229 101.333 59.182 101.336 58.1279C101.34 57.0738 101.336 55.9983 101.336 54.9584C101.336 54.4296 101.318 53.8936 101.303 53.3755L101.256 51.789V51.6399L101.131 51.718C100.644 52.0232 100.153 52.3178 99.6653 52.6301L101.153 51.789Z" fill="#F5F5F5"/>
<path d="M102.707 44.7437C102.982 44.6195 103.256 44.4846 103.528 44.3498C103.799 44.2149 104.066 44.0694 104.33 43.9239C104.51 43.828 104.697 43.7251 104.865 43.6222C104.865 43.8919 104.887 44.1581 104.906 44.4279C104.906 44.6089 104.935 44.7828 104.957 44.978C104.979 45.1732 104.997 45.3329 105.03 45.5281V43.3241L101.86 45.0987C102.003 45.0454 102.146 44.9851 102.285 44.9248C102.425 44.8644 102.568 44.8076 102.707 44.7437Z" fill="#F5F5F5"/>
<path d="M106.98 42.3551C107.254 42.2273 107.529 42.096 107.8 41.9576C108.255 41.7305 108.698 41.482 109.138 41.23C109.138 41.5033 109.156 41.7766 109.178 42.0499C109.178 42.2344 109.208 42.4048 109.23 42.6036C109.252 42.8023 109.27 42.9585 109.303 43.1608V40.9354L106.133 42.71C106.276 42.6568 106.419 42.5965 106.558 42.5361C106.697 42.4758 106.84 42.419 106.98 42.3551Z" fill="#F5F5F5"/>
<path d="M110.406 48.4846V48.8041C110.406 49.8333 109.757 51.0365 108.94 51.4802L104.312 54.0711L104.752 53.8688C105.023 53.7339 105.422 53.5529 105.888 53.3116C106.353 53.0702 106.899 52.7969 107.478 52.4882L108.365 52.009L108.819 51.757L109.046 51.6328C109.129 51.5845 109.209 51.5312 109.285 51.4731C109.578 51.2464 109.826 50.9697 110.018 50.6568C110.197 50.3613 110.335 50.0438 110.428 49.7127C110.517 49.4032 110.555 49.0823 110.542 48.7615C110.548 48.475 110.511 48.1891 110.432 47.9132C110.363 47.6672 110.2 47.4556 109.977 47.3205C109.805 47.2224 109.601 47.1907 109.406 47.2318C109.286 47.2568 109.171 47.2999 109.065 47.3595L108.958 47.4234C109.761 46.9975 110.406 47.4589 110.406 48.4846Z" fill="#F5F5F5"/>
<path d="M111.106 56.804C111.11 56.4875 111.062 56.1724 110.963 55.8706C110.881 55.6036 110.7 55.3758 110.454 55.2317C110.264 55.1265 110.04 55.0948 109.827 55.143C109.698 55.1705 109.575 55.2172 109.461 55.2814L109.34 55.3524H109.369C110.248 54.8768 110.963 55.4056 110.963 56.5485V56.9034C110.963 58.0569 110.23 59.3879 109.343 59.9025L104.891 62.3869L104.323 62.7064L104.796 62.4828C105.096 62.3302 105.528 62.1279 106.045 61.8581C106.562 61.5884 107.145 61.2902 107.793 60.9495L108.768 60.4207C109.119 60.2419 109.457 60.0403 109.779 59.8173C110.369 59.2952 110.788 58.6162 110.981 57.8652C111.077 57.5195 111.119 57.1618 111.106 56.804Z" fill="#F5F5F5"/>
<path d="M114.14 55.111V54.7561C114.14 53.0738 113.594 51.7499 112.645 51.1146L112.773 51.2246C112.892 51.3346 113.003 51.4532 113.103 51.5796C113.445 52.0195 113.687 52.5254 113.81 53.0631C113.902 53.4191 113.957 53.7828 113.975 54.1492C113.997 54.5606 113.997 54.9729 113.975 55.3843C113.969 55.6005 113.951 55.8161 113.92 56.0303C113.895 56.2468 113.865 56.4668 113.821 56.6869C113.777 56.9069 113.737 57.1305 113.678 57.3506C113.62 57.5706 113.565 57.7907 113.491 58.0072C113.418 58.2237 113.356 58.4438 113.275 58.6567C113.195 58.8697 113.114 59.0826 113.022 59.2885C112.931 59.4943 112.839 59.7002 112.74 59.8989C112.647 60.0993 112.543 60.2947 112.429 60.4846C112.326 60.6762 112.22 60.8572 112.106 61.0347C111.993 61.2122 111.894 61.3896 111.776 61.5458C111.565 61.8527 111.338 62.1489 111.095 62.4331C110.86 62.6922 110.648 62.93 110.435 63.1216C110.259 63.2915 110.075 63.4526 109.882 63.6043C109.548 63.8492 109.354 63.9841 109.354 63.9841C111.989 62.497 114.14 58.5218 114.14 55.111Z" fill="#F5F5F5"/>
<path d="M103.363 68.9353C102.84 69.2463 102.338 69.5889 101.86 69.961L105.03 68.1864V66.3869C104.939 66.9497 104.884 67.5175 104.865 68.087C104.352 68.352 103.851 68.6348 103.363 68.9353Z" fill="#F5F5F5"/>
<path d="M109.303 63.9983C109.219 64.5697 109.182 65.1376 109.153 65.7055C108.632 65.961 108.127 66.2414 107.632 66.5395C107.108 66.8498 106.607 67.1949 106.133 67.5724L109.303 65.7978V63.9983Z" fill="#F5F5F5"/>
</svg>
